<?xml version="1.0" encoding="utf-8"?>
<!-- Generator: Adobe Illustrator 15.1.0, SVG Export Plug-In . SVG Version: 6.00 Build 0)  -->
<!DOCTYPE svg PUBLIC "-//W3C//DTD SVG 1.1//EN" "http://www.w3.org/Graphics/SVG/1.1/DTD/svg11.dtd">
<svg version="1.1" id="Layer_1" xmlns="http://www.w3.org/2000/svg" xmlns:xlink="http://www.w3.org/1999/xlink" x="0px" y="0px"
	 width="72px" height="130px" viewBox="0 29.5 72 130" enable-background="new 0 29.5 72 130" xml:space="preserve">
<g>
	<path fill="#F1F0F0" d="M21.312,131.368c-0.249,3.46-3.254,6.063-6.714,5.814s-6.063-3.255-5.814-6.715
		c0.249-3.46,3.254-6.063,6.714-5.815C18.957,124.903,21.56,127.907,21.312,131.368"/>
	<path fill="#FFFFFF" d="M24.533,144.974c-10.473,5.415-16.099,4.351-18.717,3.411c-2.506-3.472,8.068-20.173,14.611-24.899
		c6.543-4.725,2.033,2.813,4.54,6.286C27.474,133.242,34.245,139.952,24.533,144.974"/>
	<path fill="#FFFFFF" d="M1.187,111.556c-0.254-2.067,5.948-6.021,12.71-6.851c6.763-0.831,8.39,2.194,8.644,4.263
		c0.254,2.067-0.466,6.423-7.229,7.256C8.549,117.053,1.44,113.624,1.187,111.556"/>
	<path fill="#FFFFFF" d="M69.752,108.818c-0.053,2.081-6.769,5.079-13.58,4.908c-6.813-0.173-7.978-3.403-7.924-5.486
		c0.052-2.084,1.404-6.286,8.216-6.115C63.275,102.3,69.805,106.735,69.752,108.818"/>
	<path fill="#FFFFFF" d="M44.464,148.872c8.075,8.591,13.736,9.457,16.517,9.443c3.518-2.439-0.9-21.708-5.502-28.341
		c-4.598-6.632-2.851,1.978-6.369,4.417C45.592,136.831,36.973,140.908,44.464,148.872"/>
	<path fill="#FFFFFF" d="M59.6,126.377c-1.247,17.344-12.158,20.629-25.256,19.688c-13.101-0.94-23.428-5.752-22.183-23.096
		c1.247-17.345,12.876-30.642,25.975-29.702C51.236,94.209,60.846,109.031,59.6,126.377"/>
	<path fill="#FAF1DD" d="M50.223,128.598c-0.666,9.272-7.721,12.862-16.062,12.265c-8.34-0.601-14.81-5.161-14.143-14.435
		c0.666-9.272,8.214-19.745,16.556-19.146C44.914,107.881,50.891,119.323,50.223,128.598"/>
	<g>
		<g>
			<defs>
				
					<rect id="SVGID_1_" x="11.111" y="93.429" transform="matrix(0.9785 -0.2064 0.2064 0.9785 -20.6456 9.4546)" width="47.756" height="20.487"/>
			</defs>
			<clipPath id="SVGID_2_">
				<use xlink:href="#SVGID_1_"  overflow="visible"/>
			</clipPath>
			<path clip-path="url(#SVGID_2_)" fill="#4E4E4E" d="M56.464,102.127c-1.19-0.031-2.21,0.074-3.092,0.277
				c-3.839-5.274-9.161-8.702-15.237-9.138c-7.852-0.563-15.174,3.993-20.05,11.466c-1.111-0.202-2.486-0.236-4.188-0.027
				c-1.01,0.124-2.006,0.32-2.972,0.565c6.938,5.118,17.227,10.073,29.418,7.736c8.108-1.553,14.241-5.789,18.782-10.605
				C58.254,102.247,57.362,102.147,56.464,102.127"/>
		</g>
	</g>
	<path fill="#FFFFFF" d="M28.823,70.354c1.59,4.646-0.887,9.702-5.533,11.292c-4.647,1.59-9.703-0.889-11.292-5.535L0.481,42.458
		c-1.59-4.646,0.888-9.702,5.535-11.292c4.646-1.59,9.702,0.888,11.291,5.534L28.823,70.354z"/>
	<path fill="#FCD8D8" d="M26.328,73.361c0.994,2.903-0.555,6.063-3.459,7.058c-2.903,0.994-6.063-0.555-7.057-3.46L3.997,42.43
		c-0.994-2.904,0.554-6.064,3.458-7.057c2.903-0.995,6.063,0.553,7.058,3.458L26.328,73.361z"/>
	<path fill="#D1908E" d="M21.228,58.454c-1.212-2.479-4.107-3.73-6.787-2.813c-2.903,0.994-4.452,4.153-3.458,7.057l5.101,14.906
		c1.212,2.48,4.106,3.731,6.784,2.814c2.905-0.995,4.453-4.154,3.459-7.058L21.228,58.454z"/>
	<path fill="#FFFFFF" d="M37.464,41.477l-1.108,26.322c-0.207,4.907,3.604,9.053,8.513,9.258c4.905,0.207,9.051-3.604,9.256-8.511
		l1.159-27.538L37.464,41.477z"/>
	<path fill="#FCD8D8" d="M40.884,41.387l-1.282,28.587c-0.129,3.068,2.252,5.659,5.319,5.788c3.065,0.128,5.659-2.252,5.788-5.32
		l1.251-29.346L40.884,41.387z"/>
	<path fill="#D1908E" d="M46.006,50.002c-3.067-0.128-5.658,2.25-5.786,5.315l-0.619,14.658c-0.127,3.067,2.254,5.658,5.32,5.787
		c3.066,0.128,5.656-2.251,5.787-5.317l0.616-14.656C51.454,52.722,49.072,50.131,46.006,50.002"/>
	<path fill="#F1F0F0" d="M55.284,41.008c-9.305-7.661-17.82,0.468-17.82,0.468s1.495,1.771,2.162,7.461
		c0.664,5.691,16.652,6.116,17.233-0.455C57.228,44.316,55.284,41.008,55.284,41.008"/>
	<path fill="#FFFFFF" d="M33.537,59.439c0.258-1.366,0.084-2.484-0.466-2.645c-0.548-0.16-1.29,0.68-1.804,1.957
		c-0.392-1.313-1.049-2.21-1.606-2.104c-0.558,0.108-0.835,1.184-0.716,2.548c-0.951-0.997-1.949-1.502-2.398-1.151
		c-0.453,0.352-0.202,1.455,0.544,2.63C6.303,67.494,0.829,92.799,0.829,92.799s16.152,21.155,38.97,16.783
		c22.819-4.369,30.011-29.993,30.011-29.993S55.374,58.096,33.537,59.439"/>
	<path fill="#FCD8D8" d="M16.572,87.137c-3.732,0.716-6.179,4.32-5.465,8.055c0.715,3.733,4.322,6.18,8.055,5.466
		c3.732-0.716,6.18-4.32,5.465-8.056C23.912,88.868,20.306,86.422,16.572,87.137"/>
	<path fill="#FCD8D8" d="M53.09,80.144c-3.734,0.715-6.181,4.321-5.467,8.054c0.716,3.733,4.32,6.18,8.054,5.464
		c3.732-0.714,6.182-4.32,5.466-8.053C60.428,81.876,56.822,79.429,53.09,80.144"/>
	
		<path fill="none" stroke="#D1908E" stroke-width="0.3917" stroke-linecap="round" stroke-linejoin="round" stroke-miterlimit="10" d="
		M36.846,94.118c0,0,0.739,2.329-1.747,3.386c-2.484,1.056-4.065-0.748-4.065-0.748"/>
	
		<path fill="none" stroke="#D1908E" stroke-width="0.3917" stroke-linecap="round" stroke-linejoin="round" stroke-miterlimit="10" d="
		M36.829,94.121c0,0,0.175,2.436,2.874,2.5c2.698,0.065,3.501-2.196,3.501-2.196"/>
	
		<path fill="none" stroke="#676767" stroke-width="0.7833" stroke-linecap="round" stroke-linejoin="round" stroke-miterlimit="10" d="
		M24.967,85.366l-0.661-3.451c-0.406-2.118-2.451-3.505-4.568-3.099c-2.117,0.407-3.504,2.449-3.1,4.566l0.689,3.594"/>
	
		<path fill="none" stroke="#676767" stroke-width="0.7833" stroke-linecap="round" stroke-linejoin="round" stroke-miterlimit="10" d="
		M52.256,79.61l-0.563-2.94c-0.407-2.117-2.449-3.505-4.567-3.099c-2.116,0.405-3.506,2.451-3.099,4.568l0.592,3.082"/>
	<path fill="#D1908E" d="M39.424,91.249c0.144,0.742-0.747,3.429-2.418,3.75c-1.672,0.32-3.491-1.85-3.633-2.592
		c-0.143-0.743,2.834-1.578,2.834-1.578S39.282,90.505,39.424,91.249"/>
	<path fill="#FFFFFF" d="M10.481,147.896c-0.626,1.283-3.348,1.243-6.078-0.088c-2.73-1.333-4.436-3.455-3.81-4.74
		c0.626-1.282,3.348-1.244,6.079,0.09C9.403,144.49,11.108,146.612,10.481,147.896"/>
</g>
</svg>
