<?xml version="1.0" encoding="utf-8"?>
<!-- Generator: Adobe Illustrator 15.1.0, SVG Export Plug-In . SVG Version: 6.00 Build 0)  -->
<!DOCTYPE svg PUBLIC "-//W3C//DTD SVG 1.1//EN" "http://www.w3.org/Graphics/SVG/1.1/DTD/svg11.dtd">
<svg version="1.1" id="Layer_1" xmlns="http://www.w3.org/2000/svg" xmlns:xlink="http://www.w3.org/1999/xlink" x="0px" y="0px"
	 width="81.5px" height="130px" viewBox="0 28 81.5 130" enable-background="new 0 28 81.5 130" xml:space="preserve">
<g>
	<path fill="#F1F0F0" d="M58.663,130.877c0,3.263-2.646,5.909-5.91,5.909s-5.909-2.646-5.909-5.909s2.645-5.91,5.909-5.91
		C56.017,124.967,58.663,127.614,58.663,130.877"/>
	<path fill="#FFFFFF" d="M30.479,145.975c-3.206,10.618-4.035,10.295-7.123,10.295c-3.087,0-10.669-16.452-10.669-24.045
		c0-7.595,3.266,0,7.293,0C24.008,132.225,32.673,138.704,30.479,145.975"/>
	<path fill="#FFFFFF" d="M38.421,145.975c3.206,10.618,4.035,10.295,7.122,10.295c3.088,0,10.67-16.452,10.67-24.045
		c0-7.595-3.266,0-7.293,0C44.893,132.225,36.227,138.704,38.421,145.975"/>
	<path fill="#F1F0F0" d="M66.215,117.77c-0.935,1.722-8.632,0.93-15.073-2.568c-6.442-3.498-6.181-6.785-5.247-8.506
		c0.934-1.722,4.013-4.582,10.455-1.084C62.791,109.109,67.15,116.049,66.215,117.77"/>
	<path fill="#F1F0F0" d="M6.61,123.794c-1.597-1.137,0.117-8.685,4.369-14.658c4.251-5.974,7.483-5.319,9.08-4.183
		c1.596,1.136,4.067,4.538-0.185,10.514C15.624,121.438,8.208,124.93,6.61,123.794"/>
	<path fill="#FFFFFF" d="M56.651,125.112c0,16.363-10.017,20.179-22.374,20.179s-22.375-3.816-22.375-20.179
		c0-16.361,10.018-29.623,22.375-29.623S56.651,108.751,56.651,125.112"/>
	<path fill="#FAF1DD" d="M49.64,127.604c0,9.45-6.892,13.603-15.393,13.603c-8.5,0-15.392-4.152-15.392-13.603
		c0-9.452,6.892-20.621,15.392-20.621C42.748,106.984,49.64,118.152,49.64,127.604"/>
	<g>
		<g>
			<defs>
				<rect id="SVGID_1_" x="12.379" y="95.489" width="42.552" height="18.772"/>
			</defs>
			<clipPath id="SVGID_2_">
				<use xlink:href="#SVGID_1_"  overflow="visible"/>
			</clipPath>
			<path clip-path="url(#SVGID_2_)" fill="#4E4E4E" d="M34.502,114.187c8.694-0.599,15.447-4.636,20.429-9.27
				c-2.013-0.87-3.649-1.076-4.956-0.908c-4.041-5.267-9.581-8.52-15.699-8.52c-6.213,0-11.833,3.353-15.886,8.766
				c-1.5-0.252-3.551,0.316-6.011,3.11C18.027,111.479,25.485,114.807,34.502,114.187"/>
		</g>
	</g>
	<path fill="#FFFFFF" d="M27.748,73.77c0.911,4.29-1.828,8.506-6.119,9.417c-4.29,0.912-8.505-1.826-9.416-6.116l-6.598-31.07
		c-0.912-4.29,1.828-8.507,6.118-9.418c4.29-0.91,8.505,1.828,9.417,6.118L27.748,73.77z"/>
	<path fill="#FCD8D8" d="M25.213,76.17c0.569,2.681-1.143,5.316-3.823,5.885s-5.316-1.142-5.885-3.823L8.733,46.353
		c-0.569-2.681,1.143-5.315,3.824-5.885s5.316,1.145,5.886,3.823L25.213,76.17z"/>
	<path fill="#D1908E" d="M22.29,62.408c-0.809-2.33-3.24-3.75-5.714-3.223c-2.681,0.57-4.392,3.205-3.823,5.886l2.923,13.762
		c0.809,2.328,3.24,3.748,5.714,3.223c2.682-0.569,4.392-3.205,3.823-5.885L22.29,62.408z"/>
	<path fill="#FFFFFF" d="M52.295,74.752c-0.71,4.326-4.793,7.26-9.121,6.551c-4.327-0.71-7.26-4.792-6.55-9.121l5.138-31.344
		c0.71-4.329,4.793-7.262,9.121-6.551c4.327,0.708,7.261,4.792,6.551,9.12L52.295,74.752z"/>
	<path fill="#FCD8D8" d="M49.062,76.064c-0.443,2.706-2.995,4.539-5.699,4.096c-2.707-0.444-4.539-2.997-4.095-5.701l5.272-32.16
		c0.444-2.706,2.995-4.538,5.701-4.095c2.705,0.443,4.538,2.996,4.094,5.7L49.062,76.064z"/>
	<path fill="#D1908E" d="M47.086,57.44c-2.704-0.443-5.256,1.389-5.7,4.092l-2.12,12.927c-0.443,2.704,1.39,5.257,4.095,5.701
		c2.703,0.443,5.255-1.388,5.699-4.092l2.121-12.928C51.625,60.435,49.791,57.884,47.086,57.44"/>
	<path fill="#FFFFFF" d="M34.323,63.665c0.396-1.246,0.359-2.311-0.137-2.523c-0.493-0.209-1.28,0.491-1.905,1.625
		c-0.219-1.271-0.73-2.185-1.264-2.147c-0.533,0.038-0.914,1.013-0.957,2.299c-0.775-1.037-1.651-1.622-2.11-1.346
		c-0.462,0.277-0.352,1.336,0.211,2.518C7.974,68.113,0,91.13,0,91.13s12.695,21.585,34.502,20.081
		c21.809-1.501,31.423-24.623,31.423-24.623S54.871,64.88,34.323,63.665"/>
	<path fill="#FCD8D8" d="M15.345,87.621c-3.567,0.245-6.261,3.337-6.015,6.905c0.246,3.568,3.337,6.262,6.905,6.017
		c3.568-0.246,6.261-3.337,6.016-6.906C22.004,90.068,18.914,87.374,15.345,87.621"/>
	<path fill="#FCD8D8" d="M50.244,85.216c-3.567,0.247-6.26,3.338-6.015,6.906c0.246,3.567,3.336,6.262,6.906,6.015
		c3.568-0.245,6.261-3.336,6.016-6.905C56.904,87.664,53.812,84.97,50.244,85.216"/>
	
		<path fill="none" stroke="#D1908E" stroke-width="0.3685" stroke-linecap="round" stroke-linejoin="round" stroke-miterlimit="10" d="
		M33.492,96.433c0,0,0.426,2.258-2.013,2.963c-2.44,0.706-3.712-1.156-3.712-1.156"/>
	
		<path fill="none" stroke="#D1908E" stroke-width="0.3685" stroke-linecap="round" stroke-linejoin="round" stroke-miterlimit="10" d="
		M33.477,96.435c0,0-0.112,2.294,2.402,2.659c2.514,0.364,3.518-1.655,3.518-1.655"/>
	<path fill="#676767" d="M23.451,88.216c0.139,2.023-1.388,3.777-3.412,3.917c-2.023,0.139-3.776-1.388-3.916-3.412l-0.413-5.986
		c-0.14-2.023,1.387-3.777,3.411-3.917c2.023-0.139,3.776,1.389,3.917,3.412L23.451,88.216z"/>
	<path fill="#4E4E4E" d="M19.867,89.631c-2.023,0.139-3.776-1.388-3.916-3.412l0.172,2.502c0.139,2.023,1.892,3.551,3.916,3.412
		c2.024-0.139,3.551-1.894,3.412-3.917l-0.172-2.502C23.418,87.739,21.891,89.492,19.867,89.631"/>
	<path fill="#FFFFFF" d="M18.932,83.055c0.037,0.529-0.362,0.987-0.891,1.023c-0.529,0.038-0.987-0.362-1.022-0.89l-0.108-1.563
		c-0.037-0.53,0.362-0.987,0.891-1.024c0.528-0.037,0.987,0.362,1.022,0.893L18.932,83.055z"/>
	<path fill="#FFFFFF" d="M18.918,86.015c0.029,0.41-0.28,0.764-0.69,0.793c-0.41,0.027-0.764-0.282-0.792-0.69
		c-0.029-0.412,0.28-0.765,0.69-0.793S18.891,85.606,18.918,86.015"/>
	<path fill="#676767" d="M49.625,86.413c0.138,2.023-1.388,3.776-3.412,3.917c-2.022,0.139-3.776-1.389-3.917-3.412l-0.413-5.987
		c-0.139-2.022,1.388-3.776,3.412-3.916c2.023-0.14,3.776,1.389,3.916,3.412L49.625,86.413z"/>
	<path fill="#4E4E4E" d="M46.041,87.828c-2.023,0.139-3.776-1.388-3.916-3.413l0.172,2.503c0.14,2.023,1.894,3.551,3.917,3.412
		c2.024-0.14,3.55-1.894,3.411-3.917l-0.172-2.502C49.592,85.935,48.064,87.688,46.041,87.828"/>
	<path fill="#FFFFFF" d="M45.105,81.253c0.036,0.528-0.362,0.987-0.891,1.022c-0.528,0.038-0.987-0.362-1.022-0.891l-0.108-1.563
		c-0.036-0.529,0.362-0.987,0.89-1.022c0.529-0.038,0.987,0.362,1.023,0.892L45.105,81.253z"/>
	<path fill="#FFFFFF" d="M45.093,84.211c0.028,0.409-0.281,0.765-0.69,0.792c-0.409,0.028-0.763-0.281-0.792-0.69
		c-0.028-0.41,0.281-0.765,0.689-0.793C44.709,83.494,45.065,83.803,45.093,84.211"/>
	<path fill="#D1908E" d="M36.226,94.044c0.049,0.709-1.086,3.119-2.684,3.229c-1.597,0.109-3.052-2.12-3.101-2.831
		c-0.049-0.712,2.826-1.154,2.826-1.154S36.177,93.333,36.226,94.044"/>
	<path fill="#FFFFFF" d="M25.703,155.171c0,1.342-2.119,1.456-4.733,1.456c-2.614,0-4.733-1.09-4.733-2.436
		c0-1.344,2.119-2.434,4.733-2.434C23.583,151.758,25.703,153.825,25.703,155.171"/>
	<path fill="#FFFFFF" d="M43.287,155.171c0,1.342,2.12,1.456,4.733,1.456c2.614,0,4.733-1.09,4.733-2.436
		c0-1.344-2.119-2.434-4.733-2.434C45.407,151.758,43.287,153.825,43.287,155.171"/>
	
		<path fill="none" stroke="#676767" stroke-width="0.7371" stroke-linecap="round" stroke-linejoin="round" stroke-miterlimit="10" d="
		M61.602,120.391c0,0,0-3.969,4.74-10.622c3.886-5.452,6.143-17.405-0.416-42.073"/>
	<path fill="#F59090" d="M78.845,45.49c1.416,11.193-4.196,23.442-12.895,24.543c-8.699,1.102-17.188-9.363-18.606-20.555
		c-1.417-11.19,4.776-18.874,13.474-19.974C69.517,28.401,77.427,34.298,78.845,45.49"/>
	<path fill="#F7A1A2" d="M66.308,39.741c-0.65-5.144-3.374-8.599-6.902-9.993c-7.667,1.656-13.014,8.641-12.175,18.631
		c2.313,4.727,6.385,8.16,10.528,7.635C63.526,55.284,67.248,47.162,66.308,39.741"/>
	<path fill="#D96E6D" d="M78.845,45.49c-0.63-4.978-2.547-8.906-5.245-11.637c0.822,1.872,1.412,3.992,1.711,6.351
		c1.417,11.192-4.196,23.441-12.896,24.542c-4.377,0.555-8.699-1.82-12.097-5.741c3.528,6.874,9.527,11.801,15.632,11.028
		C74.649,68.932,80.263,56.683,78.845,45.49"/>
	<path fill="#D96E6D" d="M69.254,73.102c-0.958-2.393-2.274-3.924-3.37-3.686c-1.095,0.239-1.659,2.177-1.538,4.753L69.254,73.102z"
		/>
</g>
</svg>
