<?xml version="1.0" encoding="utf-8"?>
<!-- Generator: Adobe Illustrator 15.1.0, SVG Export Plug-In . SVG Version: 6.00 Build 0)  -->
<!DOCTYPE svg PUBLIC "-//W3C//DTD SVG 1.1//EN" "http://www.w3.org/Graphics/SVG/1.1/DTD/svg11.dtd">
<svg version="1.1" id="Layer_1" xmlns="http://www.w3.org/2000/svg" xmlns:xlink="http://www.w3.org/1999/xlink" x="0px" y="0px"
	 width="87.5px" height="130px" viewBox="0 13.5 87.5 130" enable-background="new 0 13.5 87.5 130" xml:space="preserve">
<g>
	<path fill="#FFFFFF" d="M75.213,142.668c1.412,1.14,4.555-0.388,7.02-3.413c2.465-3.026,3.316-6.404,1.9-7.548
		c-1.414-1.141-4.559,0.386-7.023,3.413C74.648,138.146,73.797,141.525,75.213,142.668"/>
	<g>
		<path fill="#F1F0F0" d="M28.832,125.35c0,4.044-3.28,7.321-7.324,7.321c-4.043,0-7.323-3.278-7.323-7.321
			c0-4.046,3.28-7.324,7.323-7.324C25.552,118.025,28.832,121.304,28.832,125.35"/>
		<path fill="#FFFFFF" d="M35.257,138.54c-13.771,6.629-23.244,5.865-26.673,1.637c-3.426-4.23,13.347-20.525,20.657-26.451
			c7.311-5.928,2.549,3.143,5.692,7.021C38.076,124.622,43.738,134.46,35.257,138.54"/>
		<path fill="#FFFFFF" d="M53.527,138.54c13.773,6.629,23.154,5.537,26.627,1.272c3.471-4.262-13.301-20.161-20.611-26.087
			c-7.311-5.929-2.551,3.143-5.691,7.02C50.707,124.622,45.045,134.46,53.527,138.54"/>
		<path fill="#FFFFFF" d="M70.799,116.56c0,20.274-12.414,25.008-27.729,25.008c-15.312,0-27.727-4.733-27.727-25.008
			c0-20.276,12.415-36.712,27.727-36.712C58.385,79.848,70.799,96.281,70.799,116.56"/>
		<path fill="#FFFFFF" d="M56.48,22.344l-7.599,29.763c-1.416,5.548,1.933,11.195,7.483,12.612
			c5.547,1.415,11.193-1.935,12.609-7.483l7.949-31.138L56.48,22.344z"/>
		<path fill="#FCD8D8" d="M60.404,23.064l-8.344,32.307c-0.885,3.467,1.209,6.996,4.678,7.882c3.467,0.885,6.996-1.208,7.881-4.676
			l8.49-33.181L60.404,23.064z"/>
		<path fill="#D1908E" d="M64.174,34.125c-3.469-0.885-6.996,1.208-7.881,4.673l-4.232,16.574c-0.885,3.467,1.209,6.996,4.678,7.882
			c3.465,0.884,6.994-1.208,7.881-4.674l4.229-16.572C69.734,38.539,67.643,35.01,64.174,34.125"/>
		<path fill="#F1F0F0" d="M76.924,26.099c-8.77-10.98-20.443-3.754-20.443-3.754s1.283,2.378,0.67,9.033
			c-0.609,6.652,17.531,10.987,19.775,3.628C78.346,30.34,76.924,26.099,76.924,26.099"/>
		<path fill="#FFFFFF" d="M30.985,15.896l7.598,29.763c1.416,5.548-1.932,11.195-7.481,12.611s-11.196-1.934-12.611-7.482
			l-7.948-31.137L30.985,15.896z"/>
		<path fill="#FCD8D8" d="M27.062,16.617l8.342,32.306c0.885,3.468-1.208,6.997-4.675,7.881c-3.468,0.886-6.997-1.208-7.882-4.675
			l-8.491-33.179L27.062,16.617z"/>
		<path fill="#D1908E" d="M35.402,48.923L32.135,36.27c-1.252-2.851-4.411-4.463-7.526-3.668c-3.466,0.886-5.561,4.413-4.674,7.881
			l3.175,12.434c1.182,2.988,4.424,4.705,7.621,3.888C34.196,55.92,36.29,52.391,35.402,48.923"/>
		<path fill="#F1F0F0" d="M10.543,19.651c8.771-10.979,20.442-3.754,20.442-3.754s-1.28,2.378-0.671,9.032
			c0.61,6.654-17.528,10.987-19.772,3.628C9.12,23.892,10.543,19.651,10.543,19.651"/>
		<path fill="#FFFFFF" d="M48.027,41.89c0.622-1.495,0.693-2.813,0.103-3.128c-0.584-0.313-1.633,0.465-2.527,1.798
			c-0.132-1.591-0.666-2.773-1.327-2.786c-0.663-0.014-1.238,1.149-1.429,2.733c-0.848-1.364-1.862-2.181-2.46-1.891
			c-0.601,0.294-0.58,1.614-0.012,3.132C15.017,44.527,2.682,72.08,2.682,72.08s13.336,28.021,40.42,28.527
			c27.085,0.505,41.456-27,41.456-27S73.262,45.613,48.027,41.89"/>
		<path fill="#FCD8D8" d="M21.66,69.41c-4.432-0.083-8.092,3.444-8.175,7.873c-0.082,4.432,3.443,8.092,7.873,8.174
			c4.432,0.084,8.091-3.441,8.175-7.874C29.615,73.151,26.089,69.493,21.66,69.41"/>
		<path fill="#FCD8D8" d="M65.002,70.219c-4.432-0.083-8.092,3.442-8.174,7.874c-0.084,4.431,3.443,8.09,7.875,8.172
			c4.43,0.085,8.09-3.442,8.174-7.873C72.957,73.959,69.432,70.3,65.002,70.219"/>
		
			<path fill="none" stroke="#D1908E" stroke-width="0.4495" stroke-linecap="round" stroke-linejoin="round" stroke-miterlimit="10" d="
			M43.106,82.253c0,0,0.284,2.834-2.805,3.441c-3.09,0.607-4.458-1.83-4.458-1.83"/>
		
			<path fill="none" stroke="#D1908E" stroke-width="0.4495" stroke-linecap="round" stroke-linejoin="round" stroke-miterlimit="10" d="
			M43.089,82.253c0,0-0.388,2.821,2.676,3.544c3.064,0.721,4.523-1.663,4.523-1.663"/>
		
			<path fill="none" stroke="#676767" stroke-width="0.899" stroke-linecap="round" stroke-linejoin="round" stroke-miterlimit="10" d="
			M31.663,69.408l0.077-4.095c0.046-2.514-1.954-4.588-4.465-4.636c-2.514-0.047-4.588,1.952-4.636,4.464l-0.081,4.266"/>
		
			<path fill="none" stroke="#676767" stroke-width="0.899" stroke-linecap="round" stroke-linejoin="round" stroke-miterlimit="10" d="
			M64.18,69.408l0.066-3.49c0.047-2.514-1.953-4.588-4.465-4.635c-2.514-0.047-4.588,1.953-4.637,4.465l-0.068,3.659"/>
		<path fill="#D1908E" d="M46.74,79.6c-0.016,0.883-1.678,3.734-3.662,3.697c-1.984-0.037-3.538-2.948-3.522-3.83
			c0.017-0.883,3.614-1.117,3.614-1.117S46.756,78.716,46.74,79.6"/>
		<path fill="#FAF1DD" d="M62.43,117.582c0,10.483-8.684,15.089-19.395,15.089c-10.712,0-19.396-4.605-19.396-15.089
			c0-10.482,8.685-22.87,19.396-22.87C53.746,94.712,62.43,107.1,62.43,117.582"/>
		<path fill="#FFFFFF" d="M13.497,142.979c-1.425,1.156-4.552-0.339-6.987-3.34c-2.434-3.002-3.249-6.375-1.824-7.529
			c1.428-1.157,4.557,0.34,6.989,3.342C14.108,138.451,14.924,141.822,13.497,142.979"/>
		<path fill="#F59090" d="M71.68,105.827c0-7.857-6.371-14.226-14.227-14.226c-5.822,0-10.827,3.5-13.026,8.511
			c-2.202-5.011-7.205-8.511-13.028-8.511c-7.856,0-14.225,6.369-14.225,14.226c0,3.715,1.425,7.099,3.758,9.631
			c5.305,5.237,23.496,18.366,23.496,18.366s18.238-13.078,23.494-18.366C70.254,112.924,71.68,109.542,71.68,105.827"/>
		<path fill="#FABFC0" d="M40.208,102.687c0,5.049-4.093,9.142-9.142,9.142c-5.048,0-9.142-4.093-9.142-9.142
			s4.094-9.142,9.142-9.142C36.116,93.545,40.208,97.638,40.208,102.687"/>
		<path fill="#D96E6D" d="M44.425,128.335c0,0-18.812-11.565-26.273-17.315c0.649,1.651,1.598,3.154,2.779,4.438
			c5.305,5.237,23.494,18.366,23.494,18.366s18.239-13.078,23.495-18.366c1.178-1.276,2.121-2.772,2.771-4.416
			C63.26,116.833,44.425,128.335,44.425,128.335"/>
		<path fill="#FFFFFF" d="M34.729,108.545c-1.032,2.856-9.88,4.569-17.352,1.871s-7.253-7.583-6.219-10.438
			c1.03-2.858,2.657-9.102,10.127-6.403C28.759,96.275,35.762,105.688,34.729,108.545"/>
		<path fill="#FFFFFF" d="M50.486,108.545c1.032,2.856,9.879,4.569,17.352,1.871s7.252-7.583,6.223-10.438
			c-1.033-2.858-2.66-9.102-10.131-6.403C56.457,96.275,49.455,105.688,50.486,108.545"/>
		<path fill="#676767" d="M64.719,73.409c0.141,2.678-1.92,4.964-4.6,5.104c-2.678,0.139-4.963-1.92-5.104-4.598l-0.412-7.926
			c-0.139-2.68,1.918-4.964,4.596-5.104c2.68-0.14,4.965,1.919,5.105,4.598L64.719,73.409z"/>
		<path fill="#4E4E4E" d="M59.947,75.199c-2.68,0.139-4.965-1.919-5.104-4.597l0.172,3.312c0.141,2.678,2.426,4.737,5.104,4.598
			c2.68-0.14,4.74-2.426,4.6-5.104l-0.174-3.313C64.686,72.775,62.627,75.06,59.947,75.199"/>
		<path fill="#FFFFFF" d="M58.855,66.484c0.037,0.7-0.5,1.297-1.201,1.333c-0.699,0.037-1.295-0.5-1.334-1.201l-0.107-2.069
			c-0.033-0.699,0.502-1.297,1.203-1.333c0.699-0.036,1.295,0.503,1.332,1.201L58.855,66.484z"/>
		<path fill="#FFFFFF" d="M58.771,70.398c0.031,0.541-0.387,1.003-0.928,1.032c-0.543,0.028-1.006-0.388-1.033-0.93
			c-0.029-0.543,0.387-1.004,0.932-1.032C58.283,69.438,58.746,69.855,58.771,70.398"/>
		<path fill="#676767" d="M32.206,73.409c0.138,2.678-1.918,4.964-4.6,5.104c-2.679,0.139-4.962-1.92-5.103-4.598l-0.413-7.926
			c-0.14-2.68,1.92-4.964,4.598-5.104c2.68-0.14,4.962,1.919,5.104,4.598L32.206,73.409z"/>
		<path fill="#4E4E4E" d="M27.434,75.199c-2.678,0.139-4.964-1.919-5.102-4.597l0.172,3.312c0.14,2.678,2.424,4.737,5.103,4.598
			c2.682-0.14,4.738-2.426,4.6-5.104l-0.172-3.313C32.172,72.775,30.114,75.06,27.434,75.199"/>
		<path fill="#FFFFFF" d="M26.343,66.484c0.036,0.7-0.501,1.297-1.201,1.333c-0.699,0.037-1.295-0.5-1.334-1.201l-0.107-2.069
			c-0.036-0.699,0.501-1.297,1.201-1.333c0.701-0.036,1.296,0.503,1.334,1.201L26.343,66.484z"/>
		<path fill="#FFFFFF" d="M26.261,70.398c0.027,0.541-0.388,1.003-0.93,1.032c-0.542,0.028-1.005-0.388-1.032-0.93
			c-0.027-0.543,0.388-1.004,0.931-1.032C25.772,69.438,26.233,69.855,26.261,70.398"/>
	</g>
</g>
</svg>
