<?xml version="1.0" encoding="utf-8"?>
<!-- Generator: Adobe Illustrator 15.1.0, SVG Export Plug-In . SVG Version: 6.00 Build 0)  -->
<!DOCTYPE svg PUBLIC "-//W3C//DTD SVG 1.1//EN" "http://www.w3.org/Graphics/SVG/1.1/DTD/svg11.dtd">
<svg version="1.1" id="Layer_1" xmlns="http://www.w3.org/2000/svg" xmlns:xlink="http://www.w3.org/1999/xlink" x="0px" y="0px"
	 width="150px" height="50px" viewBox="0 38.199 150 50" enable-background="new 0 38.199 150 50" xml:space="preserve">
<g>
	<g>
		<rect x="15.576" y="49.123" fill="#6BA542" width="0.998" height="33.561"/>
		<path fill="#F05432" d="M18.538,45.059l-2.543-4.144l-2.255,4.209l-2.453-4.209v7.252c0,2.69,2.098,4.872,4.789,4.872
			c2.69,0,4.788-2.182,4.788-4.872v-7.252L18.538,45.059z"/>
	</g>
	<g>
		<rect x="32.832" y="54.868" fill="#6BA542" width="1" height="27.815"/>
		<path fill="#F387AE" d="M35.795,50.805l-2.542-4.145l-2.255,4.21l-2.454-4.21v7.254c0,2.689,2.098,4.872,4.788,4.872
			c2.692,0,4.788-2.183,4.788-4.872V46.66L35.795,50.805z"/>
	</g>
	<g>
		<rect x="139.404" y="59.134" fill="#6BA542" width="1" height="27.815"/>
		<path fill="#F387AE" d="M142.367,55.068l-2.542-4.144l-2.255,4.21l-2.454-4.21v7.255c0,2.689,2.098,4.871,4.788,4.871
			c2.691,0,4.787-2.182,4.787-4.871v-7.255L142.367,55.068z"/>
	</g>
	<g>
		<rect x="44.514" y="48.405" fill="#6BA542" width="0.999" height="37.009"/>
		<path fill="#A7B9E0" d="M47.477,44.342l-2.543-4.143l-2.255,4.209l-2.453-4.209v7.253c0,2.69,2.098,4.872,4.788,4.872
			c2.691,0,4.79-2.182,4.79-4.872v-7.253L47.477,44.342z"/>
	</g>
	<g>
		<rect x="59.772" y="48.053" fill="#6BA542" width="0.999" height="33.563"/>
		<path fill="#F99D1C" d="M62.734,43.988l-2.542-4.144l-2.256,4.209l-2.452-4.209v7.253c0,2.69,2.099,4.871,4.789,4.871
			s4.789-2.181,4.789-4.871v-7.253L62.734,43.988z"/>
	</g>
	<g>
		<rect x="112.979" y="53.885" fill="#6BA542" width="0.998" height="33.561"/>
		<path fill="#F05432" d="M115.941,49.82l-2.543-4.146l-2.256,4.21l-2.453-4.21v7.253c0,2.691,2.098,4.872,4.789,4.872
			c2.69,0,4.789-2.181,4.789-4.872v-7.253L115.941,49.82z"/>
	</g>
	<g>
		<rect x="73.597" y="54.868" fill="#6BA542" width="1" height="27.815"/>
		<path fill="#F387AE" d="M76.561,50.805l-2.542-4.145l-2.255,4.21l-2.454-4.21v7.254c0,2.689,2.098,4.872,4.788,4.872
			c2.692,0,4.788-2.183,4.788-4.872V46.66L76.561,50.805z"/>
	</g>
	<g>
		<rect x="88.279" y="50.434" fill="#6BA542" width="0.998" height="37.01"/>
		<path fill="#A7B9E0" d="M91.242,46.369l-2.543-4.144l-2.256,4.21l-2.453-4.21v7.253c0,2.69,2.098,4.871,4.789,4.871
			c2.69,0,4.789-2.181,4.789-4.871v-7.253L91.242,46.369z"/>
	</g>
	<g>
		<rect x="125.029" y="50.434" fill="#6BA542" width="0.998" height="37.01"/>
		<path fill="#A7B9E0" d="M127.992,46.369l-2.543-4.144l-2.256,4.21l-2.453-4.21v7.253c0,2.69,2.098,4.871,4.789,4.871
			c2.69,0,4.789-2.181,4.789-4.871v-7.253L127.992,46.369z"/>
	</g>
	<g>
		<rect x="100.537" y="48.053" fill="#6BA542" width="1" height="33.563"/>
		<path fill="#F99D1C" d="M103.5,43.988l-2.543-4.144l-2.256,4.209l-2.451-4.209v7.253c0,2.69,2.098,4.871,4.789,4.871
			c2.689,0,4.789-2.181,4.789-4.871v-7.253L103.5,43.988z"/>
	</g>
	<g>
		<rect x="8.418" y="63.245" fill="#6BA542" width="1" height="14.624"/>
		<path fill="#F99D1C" d="M11.381,59.182l-2.543-4.145l-2.256,4.209l-2.451-4.209v7.253c0,2.69,2.098,4.872,4.789,4.872
			c2.689,0,4.789-2.182,4.789-4.872v-7.253L11.381,59.182z"/>
	</g>
	<path fill="#6BA542" d="M134.934,76.123l2.124-12.275c0,0-4.197,3.549-7.733,6.428l-4.559-10.67l-5.393,15.067l-7.417-12.174
		l-8.594,10.983L94.841,55.07l-6.638,11.49L78.102,56.24l-2.211,12.496L62.753,53.367l-6.525,14.682L48.786,49.57l-7.284,21.299
		l-8.415-14.137l-7.985,15.746L14.137,53.367l-3.014,19.988L0,72.771l16.544,16.728H120.69h15.099l14.676-18.337L134.934,76.123z"/>
	<polygon fill="#8EC540" points="150.635,66.584 136.947,76.783 136.947,56.24 126.693,79.699 120.586,66.561 111.262,78.664 
		102.971,49.57 91.818,76.591 84.32,61.048 78.104,78.664 72.922,56.24 62.559,66.561 57.375,45.479 47.012,73.48 41.824,61.048 
		33.521,74.52 27.277,43.621 17.438,76.997 2.381,61.048 13.752,89.498 29.24,89.498 141.309,89.498 	"/>
	<polygon fill="#BCD647" points="16.969,89.499 11.287,62.344 25.25,89.499 	"/>
	<polygon fill="#BCD647" points="39.564,89.499 42.568,70.868 46.166,89.499 	"/>
	<path fill="#BCD647" d="M32.439,89.499c-0.195,0-3.199-11.63-3.199-11.63l10.324,11.63H32.439z"/>
	<polygon fill="#BCD647" points="54.434,89.499 58.426,62.498 61.861,83.684 66.789,77.869 68.738,83.684 72.443,73.33 
		77.195,86.271 83.094,83.684 83.094,89.499 	"/>
	<path fill="#BCD647" d="M95.662,89.499l-3.611-22.938c0,0,6.863,17.869,7.063,17.123c0.197-0.744,4.927-7.685,4.927-7.685v13.5
		H95.662L95.662,89.499z"/>
	<path fill="#BCD647" d="M119.598,89.499c0-2.44-1.951-13.578-1.951-13.578l4.604,6.788l5.724-11.841l1.336,12.815l9.807-3.5
		l-7.063,9.313L119.598,89.499L119.598,89.499z"/>
</g>
</svg>
