<?xml version="1.0" encoding="utf-8"?>
<!-- Generator: Adobe Illustrator 15.1.0, SVG Export Plug-In . SVG Version: 6.00 Build 0)  -->
<!DOCTYPE svg PUBLIC "-//W3C//DTD SVG 1.1//EN" "http://www.w3.org/Graphics/SVG/1.1/DTD/svg11.dtd">
<svg version="1.1" id="Layer_1" xmlns="http://www.w3.org/2000/svg" xmlns:xlink="http://www.w3.org/1999/xlink" x="0px" y="0px"
	 width="150px" height="50px" viewBox="0 20 150 50" enable-background="new 0 20 150 50" xml:space="preserve">
<g>
	<path fill="#6BA542" d="M24.12,65.79c-1.086-0.716-3.481-45.447-3.481-45.447l7.433,39.85l4.142-23.121l0.583,22.377l22.029,1.218
		l-4.069-17.599l7.298,19.224L66.6,32.058l-1.781,32.525l5.806-19.371L70.31,62.037l38.503,2.959l-3.754-17.175l10.924,16.094
		l-3.06-37.494l6.436,36.03l11.646-23.729l-4.847,26.273L24.12,65.79z"/>
	<path fill="#6BA542" d="M43.345,65.79c-1.086-0.716-3.481-45.447-3.481-45.447l7.433,39.85l4.142-23.121l0.583,22.377l22.029,1.218
		l-4.069-17.599l7.298,19.224l8.545-30.234l-1.781,32.525l5.806-19.371l-0.314,16.825l38.503,2.959l-3.754-17.175l10.924,16.094
		l-3.06-37.494l6.436,36.03l11.646-23.729l-4.847,26.273L43.345,65.79z"/>
	<path fill="#6BA542" d="M74.973,63.667l1.137-6.412c0,0-2.248,1.854-4.144,3.356l-2.44-5.573l-2.892,7.871l-3.976-6.359
		l-4.604,5.74l-4.564-9.621l-3.558,6.004l-5.415-5.394l-1.183,6.53l-7.042-8.032l-3.496,7.67l-3.987-9.653l-3.904,11.127
		l-4.509-7.386l-4.279,8.226l-5.875-9.982L8.625,62.22l-5.961-0.303l8.866,8.738h55.809h8.092l7.865-9.58L74.973,63.667z"/>
	<path fill="#6BA542" d="M140.315,63.667l1.139-6.412c0,0-2.25,1.854-4.146,3.356l-2.442-5.573l-2.89,7.871l-3.976-6.359
		l-4.604,5.74l-4.565-9.621l-3.558,6.004l-5.414-5.394l-1.185,6.53l-7.039-8.032l-3.497,7.67l-3.988-9.653l-3.901,11.127
		l-4.513-7.386l-4.278,8.226l-5.873-9.982L73.969,62.22l-5.962-0.303l8.865,8.737h55.811h8.092l7.862-9.58L140.315,63.667z"/>
	<polygon fill="#8EC540" points="81.305,58.683 74.094,64.011 74.094,53.28 68.798,65.535 65.635,58.671 60.778,64.993 
		56.456,49.794 50.632,63.912 46.716,55.792 43.47,64.993 40.764,53.277 35.351,58.671 32.643,47.657 27.228,62.288 24.517,55.792 
		20.179,62.829 16.917,46.687 11.776,64.126 3.91,55.792 9.851,70.655 17.941,70.655 76.493,70.655 	"/>
	<polygon fill="#8EC540" points="146.804,58.683 139.749,64.011 139.749,53.28 134.296,65.535 131.058,58.671 126.161,64.993 
		121.818,49.794 115.985,63.912 112.063,55.792 108.814,64.993 106.108,53.277 100.692,58.671 97.984,47.657 92.57,62.288 
		89.859,55.792 85.521,62.829 82.26,46.687 77.12,64.126 69.253,55.792 75.192,70.655 83.284,70.655 141.835,70.655 	"/>
	<polygon fill="#BCD647" points="76.874,70.655 73.904,56.468 81.199,70.655 	"/>
	<polygon fill="#BCD647" points="88.679,70.655 90.249,60.921 92.126,70.655 	"/>
	<path fill="#BCD647" d="M84.958,70.655c-0.104,0-1.674-6.075-1.674-6.075l5.396,6.075H84.958z"/>
	<polygon fill="#BCD647" points="96.447,70.655 98.531,56.548 100.326,67.617 102.902,64.58 103.921,67.617 105.856,62.208 
		108.587,68.97 111.919,67.617 111.919,70.655 	"/>
	<path fill="#BCD647" d="M117.987,70.655L116.1,58.671c0,0,3.716,9.336,3.819,8.946c0.102-0.39,2.701-4.017,2.701-4.017v7.054
		L117.987,70.655L117.987,70.655z"/>
	<path fill="#BCD647" d="M130.491,70.655c0-1.275-1.02-7.096-1.02-7.096l2.406,3.549l2.985-6.188l0.699,6.696l5.124-1.829
		l-3.688,4.866L130.491,70.655L130.491,70.655z"/>
	<polygon fill="#BCD647" points="11.53,70.655 8.562,56.468 15.857,70.655 	"/>
	<polygon fill="#BCD647" points="23.336,70.655 24.905,60.921 26.785,70.655 	"/>
	<path fill="#BCD647" d="M19.614,70.655c-0.104,0-1.672-6.075-1.672-6.075l5.394,6.075H19.614z"/>
	<polygon fill="#BCD647" points="31.104,70.655 33.189,56.548 34.984,67.617 37.56,64.58 38.58,67.617 40.513,62.208 43.088,68.97 
		46.263,67.617 46.263,70.655 	"/>
	<path fill="#BCD647" d="M52.645,70.655l-1.887-11.984c0,0,3.561,9.336,3.662,8.946c0.103-0.39,2.547-4.017,2.547-4.017v7.054
		L52.645,70.655L52.645,70.655z"/>
	<path fill="#BCD647" d="M65.15,70.655c0-1.275-1.021-7.096-1.021-7.096l2.405,3.549l2.99-6.188l0.698,6.696l5.124-1.829
		l-3.689,4.867H65.15z"/>
	
		<rect x="21.885" y="27.839" transform="matrix(0.9037 -0.4282 0.4282 0.9037 -12.5399 13.0613)" fill="#8F5322" width="1.756" height="13.131"/>
	<polygon fill="#A7B9E0" points="20,29.703 14.945,26.418 9.153,29.471 9.153,38.718 17.005,43.951 20.432,41.159 20.479,45.825 
		23.43,46.099 24.499,39.763 	"/>
	<polygon fill="#FFFFFF" points="17.521,34.854 14.043,36.104 11.221,33.717 11.876,30.08 15.355,28.83 18.177,31.216 	"/>
	<polygon fill="#FFFFFF" points="21.624,37.453 19.885,38.079 18.474,36.884 18.8,35.064 20.542,34.441 21.951,35.634 	"/>
	<polygon fill="#FFFFFF" points="13.168,37.763 12.507,38.41 11.616,38.163 11.388,37.267 12.045,36.621 12.938,36.868 	"/>
	<polygon fill="#A7B9E0" points="20.742,29.052 21.361,23.35 27.24,21.258 34.206,27.341 33.212,36.431 28.972,37.044 
		32.512,40.083 30.809,42.456 25.347,39.074 	"/>
	<polygon fill="#FFFFFF" points="26.251,30.573 29.481,28.776 29.539,25.08 26.37,23.181 23.139,24.981 23.081,28.676 	"/>
	<polygon fill="#FFFFFF" points="25.513,35.375 27.126,34.474 27.155,32.627 25.569,31.676 23.955,32.575 23.927,34.424 	"/>
	<polygon fill="#FFFFFF" points="31.307,29.209 32.228,29.137 32.626,28.303 32.104,27.542 31.183,27.612 30.783,28.444 	"/>
	
		<rect x="112.553" y="35.246" transform="matrix(0.9964 0.0848 -0.0848 0.9964 3.954 -9.4936)" fill="#8F5322" width="2.349" height="13.1"/>
	<polygon fill="#F387AE" points="113.808,36.364 112.936,46.521 111.509,49.642 105.464,47.964 101.495,35.304 107.249,30.685 	"/>
	<g>
		<g>
			<g>
				<defs>
					<polygon id="SVGID_1_" points="101.495,35.304 105.466,47.964 111.509,49.642 112.936,46.521 113.808,36.364 107.249,30.685 
											"/>
				</defs>
				<clipPath id="SVGID_2_">
					<use xlink:href="#SVGID_1_"  overflow="visible"/>
				</clipPath>
				<path clip-path="url(#SVGID_2_)" fill="#FFFFFF" d="M115.495,36.178l-2.048,0.133l-6.073-4.017c0,0,4.086,4.62,3.732,4.494
					c-0.354-0.125-6.395,0.213-6.395,0.213l6.198,2.145l-5.204,2.869l4.98-0.234l-2.902,4.014l3.237-1.994l-0.269,3.104l2.791-3.075
					L115.495,36.178z"/>
			</g>
		</g>
	</g>
	<polygon fill="#F387AE" points="114.523,36.364 113.649,46.521 114.394,49.829 120.569,49.201 126.614,37.405 121.845,31.879 	"/>
	<g>
		<g>
			<g>
				<defs>
					<polygon id="SVGID_3_" points="114.523,36.364 113.649,46.521 114.393,49.829 120.569,49.201 126.614,37.405 121.845,31.879 
											"/>
				</defs>
				<clipPath id="SVGID_4_">
					<use xlink:href="#SVGID_3_"  overflow="visible"/>
				</clipPath>
				<path clip-path="url(#SVGID_4_)" fill="#FFFFFF" d="M112.634,35.871l1.996,0.479l6.67-2.919c0,0-4.813,3.854-4.445,3.792
					c0.371-0.063,6.264,1.299,6.264,1.299l-6.475,1.055l4.64,3.719l-4.868-1.082l2.307,4.461l-2.721-2.508l-0.267,3.104
					l-2.353-3.518L112.634,35.871z"/>
			</g>
		</g>
	</g>
	<path fill="#1F1C1C" d="M67.007,45.939c-1.412,2.038-4.312,2.478-6.474,0.975c-2.159-1.499-2.767-4.366-1.354-6.405
		c1.415-2.039,4.313-2.476,6.475-0.977C67.815,41.031,68.423,43.898,67.007,45.939"/>
	<path fill="#1F1C1C" d="M61.719,45.206c-1.645-1.14-1.876-3.65-0.52-5.605c1.356-1.957,3.789-2.616,5.435-1.477
		c1.643,1.139,1.875,3.649,0.519,5.605C65.794,45.687,63.363,46.347,61.719,45.206"/>
	<path fill="#F05432" d="M65.982,39.058c-2.438-1.689-5.708-1.197-7.304,1.104c-1.501,2.164-0.984,5.157,1.115,6.912l4.739-5.928
		l-3.671,6.629c2.342,1.199,5.193,0.611,6.647-1.489C69.105,43.986,68.423,40.751,65.982,39.058"/>
	<path fill="#F05432" d="M65.982,39.058c-2.438-1.689-5.708-1.197-7.304,1.104c-1.501,2.164-0.984,5.157,1.115,6.912l4.739-5.928
		l-3.671,6.629c2.342,1.199,5.193,0.611,6.647-1.489C69.105,43.986,68.423,40.751,65.982,39.058"/>
	<path fill="#1F1C1C" d="M61.7,40.087c-0.188,0.272-0.563,0.34-0.833,0.15c-0.272-0.188-0.342-0.563-0.151-0.834
		c0.188-0.271,0.563-0.34,0.834-0.15C61.821,39.441,61.89,39.815,61.7,40.087"/>
	<path fill="#1F1C1C" d="M64.419,40.16c-0.19,0.271-0.563,0.339-0.834,0.151c-0.273-0.189-0.342-0.563-0.152-0.836
		c0.188-0.271,0.561-0.34,0.833-0.148C64.54,39.515,64.607,39.888,64.419,40.16"/>
	<path fill="#1F1C1C" d="M62.794,42.759c-0.308,0.44-0.912,0.549-1.354,0.244c-0.441-0.307-0.553-0.912-0.246-1.354
		c0.305-0.441,0.912-0.551,1.352-0.243C62.989,41.712,63.1,42.317,62.794,42.759"/>
	<path fill="#1F1C1C" d="M59.579,42.745c-0.201,0.29-0.601,0.361-0.892,0.16s-0.363-0.602-0.161-0.893
		c0.201-0.291,0.602-0.362,0.893-0.16C59.71,42.054,59.782,42.453,59.579,42.745"/>
	<path fill="#1F1C1C" d="M60.483,44.779c-0.215,0.31-0.64,0.388-0.949,0.172c-0.309-0.214-0.387-0.642-0.173-0.95
		c0.216-0.309,0.642-0.386,0.951-0.17C60.622,44.046,60.697,44.47,60.483,44.779"/>
	<path fill="#1F1C1C" d="M66.595,43.48c-0.188,0.272-0.123,0.646,0.15,0.835c0.272,0.189,0.646,0.121,0.834-0.15
		c0.188-0.271,0.121-0.646-0.151-0.834C67.156,43.142,66.783,43.21,66.595,43.48"/>
	<path fill="#1F1C1C" d="M63.71,43.394c-0.307,0.441-0.197,1.048,0.246,1.353c0.44,0.308,1.047,0.197,1.352-0.243
		c0.307-0.441,0.195-1.048-0.245-1.354C64.622,42.843,64.018,42.953,63.71,43.394"/>
	<path fill="#1F1C1C" d="M64.849,46.397c-0.202,0.292-0.129,0.689,0.16,0.893c0.291,0.201,0.691,0.129,0.893-0.162
		c0.203-0.291,0.13-0.691-0.16-0.891C65.448,46.035,65.05,46.106,64.849,46.397"/>
	<path fill="#1F1C1C" d="M62.624,46.265c-0.214,0.311-0.137,0.734,0.174,0.949c0.309,0.215,0.733,0.141,0.949-0.172
		c0.215-0.31,0.137-0.734-0.172-0.947C63.266,45.878,62.839,45.955,62.624,46.265"/>
	<path fill="#1F1C1C" d="M66.56,41.646c-0.189,0.271-0.563,0.339-0.834,0.15c-0.273-0.188-0.341-0.563-0.152-0.834
		c0.188-0.273,0.563-0.34,0.835-0.152C66.682,40.999,66.749,41.372,66.56,41.646"/>
	<path fill="#1F1C1C" d="M132.835,46.706c1.177,2.186,0.254,4.967-2.063,6.217c-2.314,1.246-5.146,0.486-6.322-1.697
		c-1.178-2.184-0.255-4.967,2.062-6.215C128.829,43.763,131.66,44.523,132.835,46.706"/>
	<path fill="#1F1C1C" d="M129.788,51.093c-1.763,0.947-4.104,0.019-5.232-2.078c-1.131-2.098-0.617-4.564,1.146-5.512
		c1.761-0.949,4.103-0.021,5.232,2.075C132.062,47.675,131.548,50.144,129.788,51.093"/>
	<path fill="#F99D1C" d="M126.237,44.505c-2.611,1.408-3.654,4.549-2.324,7.012c1.247,2.32,4.15,3.214,6.666,2.138l-3.136-6.911
		l4.247,6.278c2.129-1.546,2.896-4.353,1.684-6.603C132.046,43.954,128.853,43.097,126.237,44.505"/>
	<path fill="#F99D1C" d="M126.237,44.505c-2.611,1.408-3.654,4.549-2.324,7.012c1.247,2.32,4.15,3.214,6.666,2.138l-3.136-6.911
		l4.247,6.278c2.129-1.546,2.896-4.353,1.684-6.603C132.046,43.954,128.853,43.097,126.237,44.505"/>
	<path fill="#1F1C1C" d="M125.216,48.788c0.156,0.292,0.048,0.656-0.243,0.813c-0.292,0.158-0.656,0.047-0.813-0.242
		c-0.156-0.292-0.049-0.655,0.244-0.813C124.693,48.388,125.058,48.496,125.216,48.788"/>
	<path fill="#1F1C1C" d="M126.511,46.397c0.158,0.292,0.048,0.656-0.241,0.813c-0.294,0.158-0.655,0.049-0.813-0.242
		c-0.155-0.293-0.048-0.656,0.244-0.813C125.99,45.999,126.356,46.106,126.511,46.397"/>
	<path fill="#1F1C1C" d="M128.089,49.024c0.258,0.472,0.078,1.063-0.394,1.316c-0.473,0.256-1.063,0.078-1.315-0.396
		c-0.256-0.472-0.077-1.063,0.395-1.315C127.245,48.376,127.835,48.552,128.089,49.024"/>
	<path fill="#1F1C1C" d="M126.626,51.884c0.166,0.311,0.049,0.699-0.264,0.867s-0.699,0.051-0.867-0.262
		c-0.169-0.313-0.051-0.7,0.26-0.869C126.067,51.453,126.456,51.571,126.626,51.884"/>
	<path fill="#1F1C1C" d="M128.848,51.999c0.179,0.332,0.057,0.747-0.276,0.926c-0.331,0.178-0.744,0.056-0.925-0.276
		c-0.178-0.331-0.056-0.745,0.276-0.925S128.669,51.667,128.848,51.999"/>
	<path fill="#1F1C1C" d="M130.46,45.964c0.156,0.293,0.521,0.399,0.813,0.244c0.293-0.158,0.4-0.521,0.244-0.814
		c-0.158-0.291-0.521-0.399-0.813-0.241C130.413,45.308,130.3,45.673,130.46,45.964"/>
	<path fill="#1F1C1C" d="M129.072,48.493c0.257,0.473,0.847,0.648,1.317,0.395c0.472-0.254,0.648-0.844,0.395-1.314
		c-0.256-0.473-0.844-0.648-1.314-0.395C128.997,47.433,128.82,48.023,129.072,48.493"/>
	<path fill="#1F1C1C" d="M132.269,48.841c0.166,0.313,0.556,0.431,0.868,0.264c0.313-0.17,0.428-0.557,0.26-0.87
		c-0.167-0.313-0.558-0.429-0.867-0.261C132.216,48.142,132.099,48.53,132.269,48.841"/>
	<path fill="#1F1C1C" d="M131.142,50.765c0.178,0.33,0.595,0.453,0.925,0.275s0.455-0.594,0.277-0.924
		c-0.181-0.332-0.595-0.457-0.925-0.275C131.087,50.017,130.962,50.431,131.142,50.765"/>
	<path fill="#1F1C1C" d="M128.806,45.162c0.158,0.292,0.047,0.657-0.244,0.812c-0.291,0.16-0.656,0.05-0.813-0.24
		c-0.155-0.293-0.048-0.655,0.244-0.813C128.285,44.761,128.647,44.87,128.806,45.162"/>
	<g>
		
			<rect x="85.038" y="29.382" transform="matrix(0.9699 -0.2433 0.2433 0.9699 -6.152 22.0571)" fill="#8F5322" width="2.35" height="13.1"/>
		<polygon fill="#00BAD2" points="84.524,30.769 86.997,40.658 86.661,44.073 80.399,44.449 72.535,33.764 76.478,27.526 		"/>
		<polygon fill="#00BAD2" points="85.202,30.536 87.673,40.426 89.451,43.314 95.088,40.715 96.976,27.595 90.671,23.917 		"/>
		<circle fill="#FFFCDA" cx="77.583" cy="34.046" r="2.04"/>
		<circle fill="#FFFCDA" cx="93.007" cy="29.717" r="2.04"/>
		<circle fill="#FFFCDA" cx="91.876" cy="36.857" r="1.366"/>
		<circle fill="#FFFCDA" cx="81.882" cy="40.288" r="1.365"/>
	</g>
	<g>
		
			<rect x="51.613" y="25.306" transform="matrix(0.8579 0.5138 -0.5138 0.8579 22.3207 -22.7389)" fill="#8F5322" width="1.321" height="7.363"/>
		<polygon fill="#FFA8EE" points="53.654,26.264 50.707,31.177 49.216,32.401 46.578,30.062 47.699,22.689 51.745,21.777 		"/>
		<polygon fill="#FFA8EE" points="54.016,26.441 51.067,31.354 50.626,33.208 53.9,34.415 59.864,29.951 58.82,25.984 		"/>
		<circle fill="#FFFCDA" cx="49.593" cy="24.807" r="1.147"/>
		<circle fill="#FFFCDA" cx="57.444" cy="29.217" r="1.147"/>
		<circle fill="#FFFCDA" cx="54.156" cy="31.605" r="0.768"/>
		<circle fill="#FFFCDA" cx="48.821" cy="28.997" r="0.767"/>
	</g>
</g>
</svg>
