<?xml version="1.0" encoding="utf-8"?>
<!-- Generator: Adobe Illustrator 15.1.0, SVG Export Plug-In . SVG Version: 6.00 Build 0)  -->
<!DOCTYPE svg PUBLIC "-//W3C//DTD SVG 1.1//EN" "http://www.w3.org/Graphics/SVG/1.1/DTD/svg11.dtd">
<svg version="1.1" id="Layer_1" xmlns="http://www.w3.org/2000/svg" xmlns:xlink="http://www.w3.org/1999/xlink" x="0px" y="0px"
	 width="150px" height="50px" viewBox="0 20 150 50" enable-background="new 0 20 150 50" xml:space="preserve">
<g>
	<path fill="#6BA542" d="M16.958,64.717C13.094,45.277,16.07,36.35,16.94,33.853c0,0,0-2.298-0.571-0.294
		c-3.085,7.099-2.318,20.104-0.293,31.158H16.958z"/>
	<path fill="#F99D1C" d="M10.27,29.364c1.827-3.401,4.655,2.54,5.551,1.93c1.119-0.762-1.978-5.099,1.119-5.099
		c3.312,0-0.227,4.327,1.12,5.36c1.347,1.031,2.829-4.559,4.36-1.952c1.596,2.715-3.286,2.095-3.24,3.525
		c0.046,1.429,5.119-0.509,3.859,2.954c-0.953,2.622-3.207-1.482-4.479-0.518c-1.407,1.067,3.358,4.354-0.19,5.14
		c-3.469,0.769-0.762-3.859-2.344-4.843c-1.315-0.818-2.969,4.929-4.994,2.319c-2.138-2.758,3.749-2.794,3.598-4.621
		C14.463,31.553,8.888,31.937,10.27,29.364"/>
	<path fill="#FFFFFF" d="M16.94,31.555c-2.287,0.095-2.954,3.812,0,4.002C19.896,35.747,19.228,31.459,16.94,31.555"/>
</g>
<g>
	<path fill="#6BA542" d="M31.807,64.717c-1.021-18.676-1.06-21.738-0.191-36.875c0.571-2.003,0.571,0.294,0.571,0.294
		c0.131,9.541-1.735,14.474,0.534,36.581H31.807z"/>
	<path fill="#F05432" d="M25.135,32.002c-2.037-3.28,4.522-2.767,4.441-3.849c-0.103-1.35-5.405-0.829-3.861-3.513
		c1.652-2.87,3.638,2.355,5.203,1.704c1.566-0.653-2.54-4.726,0.483-4.753c3.15-0.029,0.178,3.893,1.439,4.567
		c1.262,0.672,2.112-4.692,4.485-1.872c1.796,2.133-2.883,2.04-2.683,3.624c0.223,1.751,5.449-0.74,4.36,2.729
		c-1.065,3.39-3.725-1.266-5.367-0.386c-1.364,0.733,2.792,5.032-0.481,5.486c-3.457,0.479-0.55-4.645-2.209-5.422
		C29.124,29.461,26.675,34.483,25.135,32.002"/>
	<path fill="#FFFFFF" d="M30.361,27.315c-1.059,2.029,1.829,4.462,3.468,1.997C35.468,26.846,31.419,25.285,30.361,27.315"/>
</g>
<g>
	<path fill="#6BA542" d="M77.411,59.663c-3.863-19.439-0.887-28.367-0.017-30.864c0,0,0-2.298-0.571-0.294
		c-3.086,7.099-2.318,20.104-0.293,31.158H77.411z"/>
	<path fill="#F99D1C" d="M70.724,24.31c1.827-3.401,4.656,2.54,5.551,1.93c1.118-0.762-1.978-5.099,1.118-5.099
		c3.313,0-0.227,4.327,1.12,5.36c1.347,1.031,2.829-4.559,4.36-1.952c1.596,2.715-3.286,2.095-3.24,3.525
		c0.047,1.429,5.119-0.509,3.859,2.954c-0.953,2.622-3.207-1.482-4.479-0.518c-1.406,1.067,3.358,4.354-0.19,5.14
		c-3.47,0.769-0.763-3.859-2.345-4.843c-1.314-0.818-2.969,4.929-4.993,2.319c-2.138-2.758,3.749-2.794,3.598-4.621
		C74.917,26.5,69.342,26.883,70.724,24.31"/>
	<path fill="#FFFFFF" d="M77.395,26.501c-2.287,0.095-2.954,3.812,0,4.002C80.35,30.693,79.683,26.405,77.395,26.501"/>
</g>
<g>
	<path fill="#6BA542" d="M124.043,63.125c-3.863-19.439-0.887-28.367-0.017-30.864c0,0,0-2.298-0.571-0.294
		c-3.086,7.099-2.318,20.105-0.293,31.158H124.043z"/>
	<path fill="#F99D1C" d="M117.355,27.772c1.827-3.401,4.656,2.54,5.552,1.93c1.118-0.762-1.978-5.099,1.118-5.099
		c3.313,0-0.227,4.327,1.12,5.36c1.347,1.031,2.829-4.559,4.36-1.952c1.596,2.715-3.286,2.095-3.24,3.525
		c0.047,1.429,5.119-0.509,3.859,2.954c-0.953,2.622-3.207-1.482-4.479-0.518c-1.406,1.067,3.358,4.354-0.19,5.14
		c-3.47,0.769-0.763-3.859-2.345-4.843c-1.314-0.818-2.969,4.929-4.993,2.319c-2.138-2.758,3.749-2.794,3.598-4.621
		C121.549,29.962,115.975,30.345,117.355,27.772"/>
	<path fill="#FFFFFF" d="M124.026,29.963c-2.287,0.095-2.954,3.812,0,4.002C126.981,34.155,126.314,29.868,124.026,29.963"/>
</g>
<g>
	<path fill="#6BA542" d="M90.934,70.927c-1.021-18.676-1.061-21.737-0.191-36.875c0.571-2.003,0.571,0.294,0.571,0.294
		c0.132,9.541-1.735,14.474,0.534,36.581H90.934z"/>
	<path fill="#F05432" d="M84.262,38.212c-2.037-3.28,4.521-2.767,4.441-3.849c-0.104-1.35-5.406-0.829-3.861-3.513
		c1.652-2.87,3.638,2.355,5.203,1.704c1.566-0.653-2.54-4.726,0.483-4.753c3.149-0.029,0.178,3.893,1.439,4.567
		c1.262,0.672,2.112-4.692,4.485-1.872c1.796,2.133-2.884,2.04-2.684,3.624c0.223,1.751,5.449-0.74,4.359,2.729
		c-1.064,3.39-3.725-1.266-5.366-0.386c-1.364,0.733,2.792,5.032-0.481,5.486c-3.457,0.479-0.55-4.645-2.209-5.422
		C88.251,35.671,85.802,40.693,84.262,38.212"/>
	<path fill="#FFFFFF" d="M89.488,33.525c-1.059,2.029,1.829,4.462,3.469,1.997C94.596,33.056,90.546,31.495,89.488,33.525"/>
</g>
<g>
	<path fill="#6BA542" d="M48.837,64.717c2.882-17.154,0.207-25.088-0.61-27.433c0,0,0-2.298,0.572-0.294
		c2.767,6.366,2.435,17.616,0.875,27.728L48.837,64.717L48.837,64.717L48.837,64.717z"/>
	<path fill="#F387AE" d="M54.645,33.426c2.052,3.272-4.511,2.789-4.425,3.868c0.108,1.351,5.409,0.807,3.875,3.498
		c-1.639,2.877-3.648-2.339-5.209-1.681c-1.563,0.66,2.561,4.714-0.462,4.754c-3.15,0.044-0.195-3.891-1.459-4.559
		c-1.266-0.668-2.091,4.701-4.478,1.892c-1.806-2.126,2.875-2.053,2.667-3.636c-0.23-1.75-5.446,0.765-4.371-2.709
		c1.05-3.396,3.729,1.247,5.368,0.359c1.362-0.737-2.813-5.018,0.458-5.486c3.454-0.492,0.57,4.641,2.233,5.413
		C50.665,35.985,53.092,30.953,54.645,33.426"/>
	<path fill="#FFFFFF" d="M49.438,38.138c1.05-2.035-1.85-4.453-3.477-1.981C44.333,38.629,48.388,40.171,49.438,38.138"/>
</g>
<g>
	<path fill="#6BA542" d="M108.275,57.914c2.883-17.154,0.207-25.087-0.61-27.432c0,0,0-2.298,0.571-0.294
		c2.768,6.366,2.436,17.615,0.876,27.729h-0.837V57.914L108.275,57.914z"/>
	<path fill="#F387AE" d="M114.083,26.624c2.052,3.272-4.511,2.789-4.425,3.868c0.107,1.351,5.408,0.807,3.875,3.498
		c-1.639,2.877-3.648-2.339-5.21-1.681c-1.563,0.66,2.561,4.714-0.462,4.754c-3.15,0.044-0.195-3.891-1.459-4.559
		c-1.267-0.668-2.092,4.701-4.479,1.892c-1.806-2.126,2.875-2.053,2.668-3.636c-0.23-1.75-5.446,0.765-4.371-2.709
		c1.049-3.396,3.729,1.247,5.367,0.359c1.361-0.737-2.813-5.018,0.458-5.486c3.454-0.492,0.57,4.641,2.233,5.413
		C110.104,29.183,112.531,24.15,114.083,26.624"/>
	<path fill="#FFFFFF" d="M108.876,31.335c1.05-2.035-1.851-4.453-3.478-1.981C103.771,31.827,107.826,33.369,108.876,31.335"/>
</g>
<g>
	<path fill="#6BA542" d="M62.681,64.717c-0.444-10.292,0.255-24.338-0.191-34.207c0.573-2.004,0.573,0.294,0.573,0.294
		c1.079,4.76-0.402,12.187,0.533,33.914L62.681,64.717L62.681,64.717z"/>
	<path fill="#A7B9E0" d="M56.008,33.908c-2.037-3.28,4.523-2.767,4.441-3.848c-0.103-1.351-5.404-0.829-3.86-3.514
		c1.651-2.869,3.637,2.356,5.203,1.703s-2.54-4.724,0.482-4.752c3.151-0.029,0.178,3.893,1.441,4.568
		c1.261,0.672,2.111-4.692,4.485-1.873c1.796,2.133-2.883,2.04-2.683,3.623c0.223,1.751,5.449-0.739,4.36,2.73
		c-1.065,3.389-3.726-1.266-5.367-0.386c-1.364,0.731,2.792,5.032-0.482,5.484c-3.457,0.479-0.55-4.643-2.209-5.422
		C59.999,31.368,57.549,36.39,56.008,33.908"/>
	<path fill="#FFFFFF" d="M61.235,29.221c-1.058,2.03,1.83,4.461,3.469,1.997C66.343,28.751,62.294,27.19,61.235,29.221"/>
</g>
<g>
	<path fill="#6BA542" d="M137.391,69.337c-0.444-10.292,0.255-24.338-0.191-34.207c0.573-2.004,0.573,0.294,0.573,0.294
		c1.079,4.76-0.402,12.187,0.532,33.914L137.391,69.337L137.391,69.337z"/>
	<path fill="#A7B9E0" d="M130.719,38.528c-2.037-3.28,4.522-2.767,4.44-3.848c-0.103-1.351-5.404-0.829-3.86-3.514
		c1.652-2.869,3.637,2.356,5.203,1.703s-2.54-4.724,0.482-4.752c3.151-0.029,0.178,3.893,1.441,4.568
		c1.26,0.672,2.11-4.692,4.484-1.873c1.796,2.133-2.883,2.04-2.684,3.623c0.223,1.751,5.449-0.739,4.36,2.73
		c-1.065,3.389-3.726-1.266-5.367-0.386c-1.364,0.731,2.792,5.032-0.481,5.484c-3.457,0.479-0.551-4.643-2.21-5.422
		C134.709,35.988,132.259,41.01,130.719,38.528"/>
	<path fill="#FFFFFF" d="M135.945,33.841c-1.059,2.03,1.83,4.461,3.469,1.997C141.053,33.371,137.004,31.81,135.945,33.841"/>
</g>
<g>
	<g>
		<path fill="#6BA542" d="M84.169,54.88c0.663-3.765,1.335-9.458,0.4-12.086c-0.708,4.614-1.402,6.59-2.18,8.213
			c0.549-6.654,0.252-13.414-3.5-18.093c-0.285,5.442,2.796,11.596-2.657,17.748c-4.04-1.356-4.784-10.591-5.069-13.133
			c-3.995,3.265-3.533,10.896-3.248,16.34c-1.94-11.105-3.05-10.266-5.887-13.208c1.088,5.415,2.125,6.59-2.615,10.274
			c-0.401-8.238-2-9.967-2.108-14.458c-2.611,10.907-4.601,10.149-6.327,15.033c-4.479-3.99-3.756-3.222-3.184-9.035
			c-3.088,1.89-4.781,8.595-5.637,10.772c-2.476-4.516-2.024-8.154-3.003-16.484c-2.184,4.117-1.939,12.548-3.366,16.177
			c-3.14,2.536-3.723-2.484-5.72-6.836c-2.856,1.601-3.421,5.417-3.426,9.068c-2.651-4.025-4.348-12.7,0-24.911
			c-4.69,4.268-5.491,8.452-7.445,18.606c-2.22-5.46-4.218-7.24-6.707-6.744c2.261,10.531,1.279,9.069-0.752,11.588
			C7.825,54.099,6.09,50.06,5.036,43.637c-1.458,2.204,0.688,7.448,0.239,10.203c-0.994-1.201-3.79,0.165-5.162,2.006
			c7.166,0,7.852,8.722,7.852,8.722h70.617h3.86c0,0,3.422-6.984,8.605-10.666C90.324,53.901,87.28,52.915,84.169,54.88"/>
		<path fill="#8EC540" d="M87.319,57.558c-1.207,0.469-2.338,1.445-3.333,2.647c-0.45-2.755-1.271-5.561-2.728-7.766
			c-1.055,6.424-2.201,11.101-6.115,10.712c-2.032-2.52-1.089-7.046,1.172-17.578c-2.489-0.495-4.033,4.199-6.253,9.659
			c-1.953-10.154-2.754-14.338-7.445-18.606c4.348,12.21,2.651,20.886,0,24.911c-0.004-3.651-0.569-7.468-3.423-9.069
			c-1.998,4.353-2.583,9.372-5.72,6.836c-1.428-3.628-2.517-8.724,0.013-13.73c-4.701,2.537-6.382,8.207-6.382,14.036
			c-0.855-2.178-2.549-8.884-5.637-10.773c0.572,5.815,0.182,7.554-4.297,11.545c-0.482-12.697-0.962-17.539-5.943-23.756
			c2.923,6.883,2.346,19.631-0.508,23.26c-4.739-3.686-4.573-7.445-3.486-12.86c-2.836,2.942-3.946,2.104-5.886,13.209
			c0.285-5.444-2.105-14.3-6.1-17.566c-0.286,2.539,3.124,9.772,0,18.137c-5.453-6.152-4.281-21.416-4.566-26.859
			c-4.037,6.25-4.616,16.382-3.537,24.746c-3.185-2.307-6.116-4.233-7.03-4.233c5.185,3.682,6.708,16.475,6.708,16.475h3.859h73.627
			c0,0,0.087-0.81,0.141-2.114C84.984,64.417,86.923,60.914,87.319,57.558"/>
		<path fill="#BCD647" d="M11.683,64.567c0,0-2.571-18.099,1.541-28.009c-0.736,8.989,0.119,24.066,2.783,24.325
			c3.248-5.139,1.848-13.841,1.848-13.841c1.591,0.546,3.304,12.903,2.408,14.374c1.52-2.535,2.018-8.236,3.088-10.071
			c-0.934,6.641,0.847,13.223,0.847,13.223L11.683,64.567L11.683,64.567z"/>
		<path fill="#BCD647" d="M33.647,64.567c0.046-2.906-1.076-4.759-3.15-5.18c0.894-1.136,3.493-0.261,4.769,1.015
			c-0.147-4.141-0.783-10.44,3.315-15.513c-1.34,5.674-0.948,12.268,0,14.136c1.578-0.532,2.76-3.412,3.577-5.774
			c0,0,1.053,4.906,0,8.169c1.053-1.909,2.236-2.361,3.422-1.229c-2.192,1.8-1.864,4.377-1.864,4.377L33.647,64.567L33.647,64.567z"
			/>
		<path fill="#BCD647" d="M52.705,64.567c0,0-0.154-3.029-2.256-4.486c0.718-0.914,1.661-0.703,2.256,0
			c-0.568-6.358,1.707-11.981,2.717-12.666c-1.128,4.242-1.572,9.689-0.744,14.649c0.878-2.016,2.282-3.008,3.464-3.319
			c-2.223,3.47-1.868,5.822-1.868,5.822H52.705z"/>
		<path fill="#BCD647" d="M73.595,64.567c0,0,0.354-3.029-1.998-5.822c0.472-0.675,2.999,0.134,3.317,1.868
			c0.316-0.801-2.089-12.753-2.333-15.049c1.899,1.851,3.385,7.416,3.7,9.163c0-5.288,0.002-10.922,2.366-14.419
			c0,3.419-1.203,14.736,0.267,17.538c0.828-2.319,2.011-3.521,3.038-3.118c-2.565,4.105-2.389,9.839-2.389,9.839L73.595,64.567
			L73.595,64.567z"/>
	</g>
	<g>
		<path fill="#6BA542" d="M143.607,54.88c0.664-3.765,1.336-9.458,0.4-12.086c-0.707,4.614-1.402,6.59-2.18,8.213
			c0.549-6.654,0.252-13.414-3.5-18.093c-0.285,5.442,2.797,11.596-2.656,17.748c-4.041-1.356-4.785-10.591-5.07-13.133
			c-3.994,3.265-3.533,10.896-3.248,16.34c-1.939-11.105-3.049-10.266-5.887-13.208c1.088,5.415,2.125,6.59-2.614,10.274
			c-0.401-8.238-2.001-9.967-2.108-14.458c-2.611,10.907-4.6,10.149-6.326,15.033c-4.48-3.99-3.756-3.222-3.184-9.035
			c-3.088,1.89-4.781,8.595-5.638,10.772c-2.476-4.516-2.024-8.154-3.003-16.484c-2.184,4.117-1.939,12.548-3.365,16.177
			c-3.141,2.536-3.724-2.484-5.721-6.836c-2.855,1.601-3.421,5.417-3.426,9.068c-2.65-4.025-4.348-12.7,0-24.911
			c-4.689,4.268-5.49,8.452-7.444,18.606c-2.22-5.46-4.218-7.24-6.707-6.744c2.261,10.531,1.279,9.069-0.752,11.588
			c-3.915,0.388-5.649-3.651-6.704-10.074c-1.458,2.204,0.688,7.448,0.239,10.203c-0.994-1.201-3.79,0.165-5.162,2.006
			c7.166,0,7.852,8.722,7.852,8.722h70.617h3.861c0,0,3.422-6.984,8.605-10.666C149.764,53.901,146.719,52.915,143.607,54.88"/>
		<path fill="#8EC540" d="M146.758,57.558c-1.207,0.469-2.338,1.445-3.332,2.647c-0.451-2.755-1.271-5.561-2.729-7.766
			c-1.055,6.424-2.201,11.101-6.115,10.712c-2.031-2.52-1.088-7.046,1.172-17.578c-2.488-0.495-4.033,4.199-6.252,9.659
			c-1.953-10.154-2.754-14.338-7.445-18.606c4.348,12.21,2.65,20.886,0,24.911c-0.004-3.651-0.57-7.468-3.424-9.069
			c-1.998,4.353-2.582,9.372-5.721,6.836c-1.428-3.628-2.516-8.724,0.014-13.73c-4.701,2.537-6.383,8.207-6.383,14.036
			c-0.855-2.178-2.549-8.884-5.637-10.773c0.572,5.815,0.182,7.554-4.297,11.545c-0.482-12.697-0.963-17.539-5.943-23.756
			c2.923,6.883,2.346,19.631-0.508,23.26c-4.739-3.686-4.574-7.445-3.486-12.86c-2.837,2.942-3.946,2.104-5.887,13.209
			c0.285-5.444-2.105-14.3-6.1-17.566c-0.286,2.539,3.123,9.772,0,18.137c-5.453-6.152-4.281-21.416-4.566-26.859
			c-4.037,6.25-4.616,16.382-3.537,24.746c-3.185-2.307-6.116-4.233-7.03-4.233c5.185,3.682,6.708,16.475,6.708,16.475h3.859h73.626
			c0,0,0.088-0.81,0.141-2.114C144.424,64.417,146.361,60.914,146.758,57.558"/>
		<path fill="#BCD647" d="M71.122,64.567c0,0-2.571-18.099,1.541-28.009c-0.736,8.989,0.119,24.066,2.783,24.325
			c3.248-5.139,1.847-13.841,1.847-13.841c1.592,0.546,3.305,12.903,2.408,14.374c1.52-2.535,2.018-8.236,3.088-10.071
			c-0.934,6.641,0.848,13.223,0.848,13.223L71.122,64.567L71.122,64.567z"/>
		<path fill="#BCD647" d="M93.086,64.567c0.047-2.906-1.076-4.759-3.15-5.18c0.895-1.136,3.494-0.261,4.77,1.015
			c-0.148-4.141-0.783-10.44,3.314-15.513c-1.34,5.674-0.947,12.268,0,14.136c1.578-0.532,2.76-3.412,3.577-5.774
			c0,0,1.054,4.906,0,8.169c1.054-1.909,2.235-2.361,3.423-1.229c-2.192,1.8-1.864,4.377-1.864,4.377L93.086,64.567L93.086,64.567z"
			/>
		<path fill="#BCD647" d="M112.145,64.567c0,0-0.154-3.029-2.256-4.486c0.718-0.914,1.66-0.703,2.256,0
			c-0.568-6.358,1.706-11.981,2.717-12.666c-1.128,4.242-1.572,9.689-0.744,14.649c0.879-2.016,2.281-3.008,3.464-3.319
			c-2.223,3.47-1.868,5.822-1.868,5.822H112.145z"/>
		<path fill="#BCD647" d="M133.033,64.567c0,0,0.354-3.029-1.998-5.822c0.473-0.675,3,0.134,3.318,1.868
			c0.316-0.801-2.09-12.753-2.334-15.049c1.9,1.851,3.385,7.416,3.701,9.163c0-5.288,0.002-10.922,2.365-14.419
			c0,3.419-1.203,14.736,0.268,17.538c0.828-2.319,2.01-3.521,3.037-3.118c-2.564,4.105-2.389,9.839-2.389,9.839L133.033,64.567
			L133.033,64.567z"/>
	</g>
</g>
</svg>
