<?xml version="1.0" encoding="utf-8"?>
<!-- Generator: Adobe Illustrator 15.1.0, SVG Export Plug-In . SVG Version: 6.00 Build 0)  -->
<!DOCTYPE svg PUBLIC "-//W3C//DTD SVG 1.1//EN" "http://www.w3.org/Graphics/SVG/1.1/DTD/svg11.dtd">
<svg version="1.1" id="Layer_1" xmlns="http://www.w3.org/2000/svg" xmlns:xlink="http://www.w3.org/1999/xlink" x="0px" y="0px"
	 width="84px" height="130px" viewBox="10.667 29.5 84 130" enable-background="new 10.667 29.5 84 130" xml:space="preserve">
<g>
	<path fill="#FFFFFF" d="M69.825,157.342c0.282,1.332,2.807,1.929,5.643,1.329c2.834-0.599,4.903-2.164,4.622-3.496
		c-0.282-1.334-2.809-1.93-5.645-1.33C71.611,154.442,69.542,156.009,69.825,157.342"/>
	<path fill="#FFFFFF" d="M47.761,157.185c-0.041,1.361-2.42,2.396-5.315,2.311c-2.896-0.083-5.211-1.256-5.171-2.618
		c0.042-1.361,2.42-2.397,5.315-2.312C45.485,154.648,47.801,155.822,47.761,157.185"/>
	<path fill="#F1F0F0" d="M80.761,136.785c-0.718,3.229-3.92,5.263-7.147,4.543c-3.229-0.721-5.262-3.92-4.544-7.148
		c0.72-3.229,3.92-5.262,7.149-4.542C79.446,130.356,81.479,133.557,80.761,136.785"/>
	<path fill="#F1F0F0" d="M84.08,125.148c-1.301,1.5-8.062-0.358-12.974-4.61c-4.913-4.253-3.812-7.339-2.511-8.841
		c1.299-1.501,1.863-9.812,6.775-5.558C80.281,110.393,85.379,123.647,84.08,125.148"/>
	<path fill="#F1F0F0" d="M19.858,112.695c0.474,1.927,7.245,7.484,13.553,5.925c6.307-1.558,6.728-4.808,6.252-6.734
		c-0.477-1.929,4.656-9.181-1.65-7.622C30.35,109.793,19.38,110.767,19.858,112.695"/>
	<path fill="#FFFFFF" d="M60.189,145.809c5.064,10.037,8.894,12.575,11.513,12.927c3.875-1.28,6.08-19.923,3.669-27.231
		c-2.414-7.307-3.143,1.039-7.019,2.319C64.477,135.101,55.494,136.502,60.189,145.809"/>
	<path fill="#FFFFFF" d="M55.189,144.121c-3.196,10.777-6.514,13.957-9.029,14.77c-4.041-0.571-9.528-18.522-8.453-26.145
		c1.074-7.621,3.277,0.463,7.316,1.033C49.066,134.349,58.153,134.127,55.189,144.121"/>
	<path fill="#FFFFFF" d="M78.901,122.655c0.493,16.573-9.539,20.743-22.056,21.115c-12.516,0.372-22.777-3.191-23.272-19.766
		c-0.495-16.572,9.253-30.311,21.769-30.681C67.862,92.951,78.407,106.084,78.901,122.655"/>
	<path fill="#FAF1DD" d="M70.223,125.67c0.263,8.858-6.081,12.947-14.051,13.182c-7.969,0.237-14.547-3.465-14.809-12.324
		c-0.264-8.86,5.883-19.522,13.855-19.761C63.185,106.53,69.957,116.807,70.223,125.67"/>
	<g>
		<g>
			<defs>
				<rect id="SVGID_1_" x="37.051" y="93.316" width="38.729" height="20.88"/>
			</defs>
			<clipPath id="SVGID_2_">
				<use xlink:href="#SVGID_1_"  overflow="visible"/>
			</clipPath>
			<path clip-path="url(#SVGID_2_)" fill="#4E4E4E" d="M55.344,93.324c-7.753,0.23-14.441,5.593-18.292,13.576
				c5.572,4.209,12.926,7.643,21.903,7.268c6.66-0.277,12.255-2.572,16.824-5.641C71.675,99.237,63.979,93.067,55.344,93.324"/>
		</g>
	</g>
	<path fill="#FFFFFF" d="M54.101,71.951c0.848,4.604-2.197,9.025-6.801,9.874c-4.604,0.848-9.026-2.196-9.875-6.801l-6.146-33.352
		c-0.849-4.605,2.197-9.025,6.802-9.874c4.604-0.851,9.026,2.195,9.875,6.8L54.101,71.951z"/>
	<path fill="#FCD8D8" d="M51.327,74.437c0.529,2.879-1.373,5.642-4.252,6.172c-2.876,0.531-5.641-1.373-6.171-4.251l-6.306-34.22
		c-0.529-2.878,1.374-5.642,4.251-6.171c2.878-0.531,5.642,1.373,6.172,4.25L51.327,74.437z"/>
	<path fill="#D1908E" d="M48.604,59.664c-0.797-2.508-3.351-4.093-6.006-3.604c-2.876,0.531-4.782,3.294-4.251,6.172l2.723,14.774
		c0.796,2.508,3.349,4.094,6.004,3.604c2.879-0.531,4.781-3.294,4.252-6.172L48.604,59.664z"/>
	<path fill="#FFFFFF" d="M61.621,71.951c-0.849,4.604,2.199,9.025,6.801,9.874c4.605,0.848,9.026-2.196,9.875-6.801l6.146-33.352
		c0.85-4.605-2.196-9.025-6.804-9.874c-4.604-0.851-9.024,2.195-9.873,6.8L61.621,71.951z"/>
	<path fill="#FCD8D8" d="M64.396,74.437c-0.531,2.879,1.374,5.642,4.252,6.172c2.877,0.531,5.643-1.373,6.17-4.251l6.306-34.22
		c0.531-2.878-1.372-5.642-4.25-6.171c-2.878-0.531-5.643,1.373-6.172,4.25L64.396,74.437z"/>
	<path fill="#D1908E" d="M67.117,59.664c0.797-2.508,3.35-4.093,6.005-3.604c2.88,0.531,4.782,3.294,4.251,6.172L74.65,77.006
		c-0.795,2.508-3.348,4.094-6.003,3.604c-2.878-0.531-4.783-3.294-4.252-6.172L67.117,59.664z"/>
	<path fill="#FFFFFF" d="M60.074,62.317c0.435-1.25,0.429-2.331-0.069-2.559c-0.492-0.227-1.31,0.46-1.974,1.594
		c-0.185-1.294-0.679-2.232-1.221-2.21c-0.541,0.023-0.954,1-1.034,2.304c-0.755-1.073-1.627-1.69-2.099-1.424
		c-0.477,0.27-0.395,1.346,0.145,2.557c-20.56,3.521-29.269,26.619-29.269,26.619s12.27,22.213,34.402,21.289
		c22.132-0.925,32.505-24.085,32.505-24.085S80.856,64.111,60.074,62.317"/>
	<path fill="#FCD8D8" d="M40.193,86.063c-3.619,0.15-6.432,3.21-6.281,6.83c0.151,3.621,3.21,6.434,6.829,6.282
		c3.622-0.15,6.436-3.208,6.283-6.83C46.875,88.726,43.815,85.913,40.193,86.063"/>
	<path fill="#FCD8D8" d="M75.613,84.584c-3.622,0.151-6.434,3.21-6.283,6.831c0.152,3.622,3.209,6.434,6.832,6.282
		c3.619-0.151,6.434-3.208,6.281-6.83C82.293,87.245,79.234,84.432,75.613,84.584"/>
	
		<path fill="none" stroke="#D1908E" stroke-width="0.3734" stroke-linecap="round" stroke-linejoin="round" stroke-miterlimit="10" d="
		M58.336,95.488c0,0,0.371,2.298-2.122,2.947c-2.49,0.647-3.728-1.274-3.728-1.274"/>
	
		<path fill="none" stroke="#D1908E" stroke-width="0.3734" stroke-linecap="round" stroke-linejoin="round" stroke-miterlimit="10" d="
		M58.322,95.488c0,0-0.179,2.322,2.358,2.761s3.61-1.582,3.61-1.582"/>
	
		<path fill="none" stroke="#676767" stroke-width="0.7469" stroke-linecap="round" stroke-linejoin="round" stroke-miterlimit="10" d="
		M75.277,83.964l-0.118-2.852c-0.089-2.053-1.82-3.648-3.875-3.563c-2.052,0.086-3.648,1.821-3.562,3.874l0.126,2.99"/>
	
		<path fill="none" stroke="#676767" stroke-width="0.7469" stroke-linecap="round" stroke-linejoin="round" stroke-miterlimit="10" d="
		M48.99,83.964l-0.117-2.852c-0.088-2.053-1.821-3.648-3.875-3.563c-2.054,0.086-3.648,1.821-3.562,3.874l0.124,2.99"/>
	<path fill="#D1908E" d="M61.17,93.142c0.031,0.721-1.185,3.131-2.805,3.197c-1.621,0.069-3.036-2.23-3.065-2.952
		c-0.028-0.721,2.895-1.09,2.895-1.09S61.142,92.422,61.17,93.142"/>
	<path fill="#5FC1B1" d="M22.686,116.272c0,0.24-0.195,0.435-0.435,0.435c-0.24,0-0.435-0.194-0.435-0.435v-13.518
		c0-0.239,0.195-0.435,0.435-0.435c0.24,0,0.435,0.195,0.435,0.435V116.272z"/>
	<path fill="#E8A5A3" d="M23.071,101.966c0,3.323-0.367,6.019-0.817,6.019c-0.455,0-0.821-2.695-0.821-6.019
		c0-3.324,0.366-6.019,0.821-6.019C22.704,95.947,23.071,98.642,23.071,101.966"/>
	<path fill="#E8A5A3" d="M22.831,102.544c-2.351,2.352-4.516,3.996-4.835,3.676c-0.32-0.318,1.327-2.483,3.676-4.834
		c2.352-2.349,4.516-3.995,4.835-3.676C26.827,98.03,25.181,100.193,22.831,102.544"/>
	<path fill="#E8A5A3" d="M22.254,102.784c-3.327,0-6.021-0.366-6.021-0.818c0-0.453,2.694-0.819,6.021-0.819
		c3.322,0,6.016,0.366,6.016,0.819C28.27,102.418,25.576,102.784,22.254,102.784"/>
	<path fill="#E8A5A3" d="M21.671,102.544c-2.349-2.351-3.996-4.514-3.676-4.834c0.32-0.319,2.484,1.328,4.835,3.676
		c2.35,2.351,3.996,4.516,3.676,4.834C26.188,106.54,24.023,104.896,21.671,102.544"/>
	<path fill="#D1908E" d="M23.004,102.288c-1.311,3.055-2.708,5.386-3.125,5.208c-0.416-0.179,0.309-2.798,1.619-5.854
		c1.31-3.056,2.708-5.388,3.125-5.209C25.039,96.612,24.314,99.234,23.004,102.288"/>
	<path fill="#D1908E" d="M22.555,102.726c-3.086,1.234-5.725,1.894-5.892,1.474c-0.167-0.419,2.197-1.76,5.285-2.994
		c3.084-1.234,5.725-1.894,5.892-1.476C28.008,100.151,25.643,101.491,22.555,102.726"/>
	<path fill="#D1908E" d="M21.929,102.719c-3.056-1.312-5.387-2.709-5.209-3.125c0.179-0.417,2.8,0.309,5.855,1.618
		c3.055,1.311,5.388,2.709,5.208,3.125C27.605,104.754,24.983,104.028,21.929,102.719"/>
	<path fill="#D1908E" d="M21.491,102.271c-1.235-3.088-1.894-5.726-1.476-5.894c0.422-0.167,1.763,2.197,2.995,5.285
		c1.236,3.085,1.895,5.723,1.475,5.892C24.065,107.721,22.726,105.356,21.491,102.271"/>
	<path fill="#FFFFFF" d="M24.248,101.966c0,1.103-0.894,1.996-1.997,1.996c-1.102,0-1.998-0.894-1.998-1.996
		c0-1.104,0.895-1.998,1.998-1.998C23.354,99.968,24.248,100.861,24.248,101.966"/>
	<path fill="#FCD8D8" d="M23.504,101.966c0,0.691-0.561,1.252-1.251,1.252c-0.694,0-1.256-0.562-1.256-1.252
		c0-0.691,0.561-1.254,1.256-1.254C22.944,100.712,23.504,101.274,23.504,101.966"/>
	<path fill="#5FC1B1" d="M20.249,108.132c-0.86-0.515-1.797-0.707-2.58-0.595c0.271,0.745,0.88,1.479,1.741,1.994
		c0.86,0.516,1.795,0.71,2.58,0.596C21.718,109.383,21.108,108.647,20.249,108.132"/>
	<path fill="#5FC1B1" d="M23.746,109.516c-0.791,0.618-1.305,1.421-1.48,2.193c0.79,0.017,1.693-0.289,2.485-0.907
		c0.79-0.618,1.304-1.421,1.482-2.195C25.44,108.593,24.536,108.897,23.746,109.516"/>
</g>
</svg>
