<?xml version="1.0" encoding="utf-8"?>
<!-- Generator: Adobe Illustrator 15.1.0, SVG Export Plug-In . SVG Version: 6.00 Build 0)  -->
<!DOCTYPE svg PUBLIC "-//W3C//DTD SVG 1.1//EN" "http://www.w3.org/Graphics/SVG/1.1/DTD/svg11.dtd">
<svg version="1.1" id="Layer_1" xmlns="http://www.w3.org/2000/svg" xmlns:xlink="http://www.w3.org/1999/xlink" x="0px" y="0px"
	 width="150px" height="50px" viewBox="0 20 150 50" enable-background="new 0 20 150 50" xml:space="preserve">
<g>
	<g>
		<g>
			<g>
				<defs>
					<rect id="SVGID_1_" x="0.859" y="12.053" width="156.986" height="57.947"/>
				</defs>
				<clipPath id="SVGID_2_">
					<use xlink:href="#SVGID_1_"  overflow="visible"/>
				</clipPath>
				<g clip-path="url(#SVGID_2_)">
					<polygon fill="#D1B295" points="33.586,59.771 25.659,59.771 26.83,41.313 32.418,41.313 					"/>
				</g>
			</g>
		</g>
		<g>
			<g>
				<defs>
					<rect id="SVGID_3_" x="0.859" y="12.053" width="156.986" height="57.947"/>
				</defs>
				<clipPath id="SVGID_4_">
					<use xlink:href="#SVGID_3_"  overflow="visible"/>
				</clipPath>
				<g clip-path="url(#SVGID_4_)">
					<path fill="#F05432" d="M40.625,42.161c0.265-0.817,0.419-1.255,0.419-1.946c0-4.191-5.177-7.563-11.563-7.563
						c-6.385,0-11.562,3.357-11.562,7.548c0,0.694,0.154,1.144,0.418,1.96L40.625,42.161L40.625,42.161z"/>
				</g>
			</g>
		</g>
	</g>
	<g>
		<g>
			<g>
				<defs>
					<path id="SVGID_5_" d="M17.918,40.201c0,0.693,0.154,1.143,0.418,1.96h22.288c0.265-0.817,0.42-1.255,0.42-1.946
						c0-4.191-5.178-7.563-11.563-7.563C23.094,32.654,17.918,36.012,17.918,40.201"/>
				</defs>
				<clipPath id="SVGID_6_">
					<use xlink:href="#SVGID_5_"  overflow="visible"/>
				</clipPath>
				<g clip-path="url(#SVGID_6_)">
					<path fill="#FFFFFF" d="M25.659,34.832c0,1.218-0.988,2.205-2.207,2.205c-1.219,0-2.207-0.987-2.207-2.205
						c0-1.219,0.988-2.209,2.207-2.209C24.671,32.623,25.659,33.611,25.659,34.832"/>
				</g>
			</g>
		</g>
		<g>
			<g>
				<defs>
					<path id="SVGID_7_" d="M17.918,40.201c0,0.693,0.154,1.143,0.418,1.96h22.288c0.265-0.817,0.42-1.255,0.42-1.946
						c0-4.191-5.178-7.563-11.563-7.563C23.094,32.654,17.918,36.012,17.918,40.201"/>
				</defs>
				<clipPath id="SVGID_8_">
					<use xlink:href="#SVGID_7_"  overflow="visible"/>
				</clipPath>
				<g clip-path="url(#SVGID_8_)">
					<path fill="#FFFFFF" d="M34.848,39.854c0,0.696-0.564,1.262-1.261,1.262c-0.696,0-1.26-0.564-1.26-1.262
						s0.564-1.262,1.26-1.262C34.283,38.594,34.848,39.159,34.848,39.854"/>
				</g>
			</g>
		</g>
		<g>
			<g>
				<defs>
					<path id="SVGID_9_" d="M17.918,40.201c0,0.693,0.154,1.143,0.418,1.96h22.288c0.265-0.817,0.42-1.255,0.42-1.946
						c0-4.191-5.178-7.563-11.563-7.563C23.094,32.654,17.918,36.012,17.918,40.201"/>
				</defs>
				<clipPath id="SVGID_10_">
					<use xlink:href="#SVGID_9_"  overflow="visible"/>
				</clipPath>
				<g clip-path="url(#SVGID_10_)">
					<path fill="#FFFFFF" d="M38.271,34.568c0,1.074-0.871,1.945-1.945,1.945c-1.074,0-1.945-0.871-1.945-1.945
						s0.87-1.945,1.945-1.945C37.398,32.623,38.271,33.494,38.271,34.568"/>
				</g>
			</g>
		</g>
		<g>
			<g>
				<defs>
					<path id="SVGID_11_" d="M17.918,40.201c0,0.693,0.154,1.143,0.418,1.96h22.288c0.265-0.817,0.42-1.255,0.42-1.946
						c0-4.191-5.178-7.563-11.563-7.563C23.094,32.654,17.918,36.012,17.918,40.201"/>
				</defs>
				<clipPath id="SVGID_12_">
					<use xlink:href="#SVGID_11_"  overflow="visible"/>
				</clipPath>
				<g clip-path="url(#SVGID_12_)">
					<path fill="#FFFFFF" d="M24.643,41.553c0,0.938-0.76,1.696-1.697,1.696c-0.938,0-1.699-0.761-1.699-1.696
						c0-0.938,0.761-1.697,1.699-1.697C23.882,39.854,24.643,40.613,24.643,41.553"/>
				</g>
			</g>
		</g>
		<g>
			<g>
				<defs>
					<path id="SVGID_13_" d="M17.918,40.201c0,0.693,0.154,1.143,0.418,1.96h22.288c0.265-0.817,0.42-1.255,0.42-1.946
						c0-4.191-5.178-7.563-11.563-7.563C23.094,32.654,17.918,36.012,17.918,40.201"/>
				</defs>
				<clipPath id="SVGID_14_">
					<use xlink:href="#SVGID_13_"  overflow="visible"/>
				</clipPath>
				<g clip-path="url(#SVGID_14_)">
					<path fill="#FFFFFF" d="M40.625,41.118c0,0.981-0.796,1.778-1.779,1.778s-1.779-0.797-1.779-1.778
						c0-0.983,0.796-1.778,1.779-1.778S40.625,40.135,40.625,41.118"/>
				</g>
			</g>
		</g>
		<g>
			<g>
				<defs>
					<path id="SVGID_15_" d="M17.918,40.201c0,0.693,0.154,1.143,0.418,1.96h22.288c0.265-0.817,0.42-1.255,0.42-1.946
						c0-4.191-5.178-7.563-11.563-7.563C23.094,32.654,17.918,36.012,17.918,40.201"/>
				</defs>
				<clipPath id="SVGID_16_">
					<use xlink:href="#SVGID_15_"  overflow="visible"/>
				</clipPath>
				<g clip-path="url(#SVGID_16_)">
					<path fill="#FFFFFF" d="M19.999,37.555c0,0.574-0.465,1.039-1.04,1.039c-0.575,0-1.041-0.465-1.041-1.039
						s0.466-1.039,1.041-1.039C19.532,36.514,19.999,36.98,19.999,37.555"/>
				</g>
			</g>
		</g>
		<g>
			<g>
				<defs>
					<path id="SVGID_17_" d="M17.918,40.201c0,0.693,0.154,1.143,0.418,1.96h22.288c0.265-0.817,0.42-1.255,0.42-1.946
						c0-4.191-5.178-7.563-11.563-7.563C23.094,32.654,17.918,36.012,17.918,40.201"/>
				</defs>
				<clipPath id="SVGID_18_">
					<use xlink:href="#SVGID_17_"  overflow="visible"/>
				</clipPath>
				<g clip-path="url(#SVGID_18_)">
					<path fill="#FFFFFF" d="M31.615,37.037c0,1.219-0.988,2.207-2.207,2.207c-1.219,0-2.206-0.988-2.206-2.207
						s0.987-2.205,2.206-2.205C30.627,34.832,31.615,35.818,31.615,37.037"/>
				</g>
			</g>
		</g>
	</g>
	<g>
		<g>
			<g>
				<defs>
					<rect id="SVGID_19_" x="0.859" y="12.053" width="156.986" height="57.947"/>
				</defs>
				<clipPath id="SVGID_20_">
					<use xlink:href="#SVGID_19_"  overflow="visible"/>
				</clipPath>
				<g clip-path="url(#SVGID_20_)">
					<polygon fill="#D1B295" points="61.817,60.59 53.892,60.59 55.062,42.129 60.649,42.129 					"/>
				</g>
			</g>
		</g>
		<g>
			<g>
				<defs>
					<rect id="SVGID_21_" x="0.859" y="12.053" width="156.986" height="57.947"/>
				</defs>
				<clipPath id="SVGID_22_">
					<use xlink:href="#SVGID_21_"  overflow="visible"/>
				</clipPath>
				<g clip-path="url(#SVGID_22_)">
					<path fill="#F99D1C" d="M68.855,42.979c0.265-0.816,0.419-1.254,0.419-1.947c0-4.189-5.177-7.561-11.563-7.561
						c-6.384,0-11.562,3.357-11.562,7.547c0,0.693,0.154,1.144,0.419,1.959L68.855,42.979L68.855,42.979z"/>
				</g>
			</g>
		</g>
	</g>
	<g>
		<g>
			<g>
				<defs>
					<path id="SVGID_23_" d="M46.149,41.018c0,0.694,0.154,1.145,0.418,1.961h22.288c0.265-0.816,0.419-1.254,0.419-1.947
						c0-4.188-5.177-7.561-11.563-7.561C51.326,33.471,46.149,36.828,46.149,41.018"/>
				</defs>
				<clipPath id="SVGID_24_">
					<use xlink:href="#SVGID_23_"  overflow="visible"/>
				</clipPath>
				<g clip-path="url(#SVGID_24_)">
					<path fill="#FFFFFF" d="M53.892,35.648c0,1.219-0.989,2.205-2.207,2.205c-1.219,0-2.206-0.986-2.206-2.205
						s0.987-2.209,2.206-2.209C52.902,33.439,53.892,34.43,53.892,35.648"/>
				</g>
			</g>
		</g>
		<g>
			<g>
				<defs>
					<path id="SVGID_25_" d="M46.149,41.018c0,0.694,0.154,1.145,0.418,1.961h22.288c0.265-0.816,0.419-1.254,0.419-1.947
						c0-4.188-5.177-7.561-11.563-7.561C51.326,33.471,46.149,36.828,46.149,41.018"/>
				</defs>
				<clipPath id="SVGID_26_">
					<use xlink:href="#SVGID_25_"  overflow="visible"/>
				</clipPath>
				<g clip-path="url(#SVGID_26_)">
					<path fill="#FFFFFF" d="M63.079,40.672c0,0.695-0.563,1.26-1.261,1.26c-0.696,0-1.261-0.563-1.261-1.26
						c0-0.695,0.563-1.263,1.261-1.263C62.515,39.409,63.079,39.977,63.079,40.672"/>
				</g>
			</g>
		</g>
		<g>
			<g>
				<defs>
					<path id="SVGID_27_" d="M46.149,41.018c0,0.694,0.154,1.145,0.418,1.961h22.288c0.265-0.816,0.419-1.254,0.419-1.947
						c0-4.188-5.177-7.561-11.563-7.561C51.326,33.471,46.149,36.828,46.149,41.018"/>
				</defs>
				<clipPath id="SVGID_28_">
					<use xlink:href="#SVGID_27_"  overflow="visible"/>
				</clipPath>
				<g clip-path="url(#SVGID_28_)">
					<path fill="#FFFFFF" d="M66.502,35.387c0,1.072-0.871,1.943-1.945,1.943s-1.945-0.87-1.945-1.943
						c0-1.076,0.87-1.947,1.945-1.947C65.631,33.439,66.502,34.311,66.502,35.387"/>
				</g>
			</g>
		</g>
		<g>
			<g>
				<defs>
					<path id="SVGID_29_" d="M46.149,41.018c0,0.694,0.154,1.145,0.418,1.961h22.288c0.265-0.816,0.419-1.254,0.419-1.947
						c0-4.188-5.177-7.561-11.563-7.561C51.326,33.471,46.149,36.828,46.149,41.018"/>
				</defs>
				<clipPath id="SVGID_30_">
					<use xlink:href="#SVGID_29_"  overflow="visible"/>
				</clipPath>
				<g clip-path="url(#SVGID_30_)">
					<path fill="#FFFFFF" d="M52.874,42.369c0,0.938-0.76,1.695-1.697,1.695s-1.697-0.76-1.697-1.695
						c0-0.938,0.761-1.697,1.697-1.697C52.113,40.672,52.874,41.432,52.874,42.369"/>
				</g>
			</g>
		</g>
		<g>
			<g>
				<defs>
					<path id="SVGID_31_" d="M46.149,41.018c0,0.694,0.154,1.145,0.418,1.961h22.288c0.265-0.816,0.419-1.254,0.419-1.947
						c0-4.188-5.177-7.561-11.563-7.561C51.326,33.471,46.149,36.828,46.149,41.018"/>
				</defs>
				<clipPath id="SVGID_32_">
					<use xlink:href="#SVGID_31_"  overflow="visible"/>
				</clipPath>
				<g clip-path="url(#SVGID_32_)">
					<path fill="#FFFFFF" d="M68.855,41.936c0,0.982-0.797,1.778-1.78,1.778c-0.981,0-1.778-0.796-1.778-1.778
						s0.797-1.779,1.778-1.779C68.059,40.156,68.855,40.952,68.855,41.936"/>
				</g>
			</g>
		</g>
		<g>
			<g>
				<defs>
					<path id="SVGID_33_" d="M46.149,41.018c0,0.694,0.154,1.145,0.418,1.961h22.288c0.265-0.816,0.419-1.254,0.419-1.947
						c0-4.188-5.177-7.561-11.563-7.561C51.326,33.471,46.149,36.828,46.149,41.018"/>
				</defs>
				<clipPath id="SVGID_34_">
					<use xlink:href="#SVGID_33_"  overflow="visible"/>
				</clipPath>
				<g clip-path="url(#SVGID_34_)">
					<path fill="#FFFFFF" d="M48.229,38.371c0,0.574-0.466,1.038-1.039,1.038c-0.575,0-1.041-0.464-1.041-1.038
						s0.465-1.039,1.041-1.039C47.764,37.33,48.229,37.797,48.229,38.371"/>
				</g>
			</g>
		</g>
		<g>
			<g>
				<defs>
					<path id="SVGID_35_" d="M46.149,41.018c0,0.694,0.154,1.145,0.418,1.961h22.288c0.265-0.816,0.419-1.254,0.419-1.947
						c0-4.188-5.177-7.561-11.563-7.561C51.326,33.471,46.149,36.828,46.149,41.018"/>
				</defs>
				<clipPath id="SVGID_36_">
					<use xlink:href="#SVGID_35_"  overflow="visible"/>
				</clipPath>
				<g clip-path="url(#SVGID_36_)">
					<path fill="#FFFFFF" d="M59.847,37.854c0,1.219-0.988,2.207-2.207,2.207c-1.218,0-2.206-0.988-2.206-2.207
						s0.988-2.205,2.206-2.205C58.858,35.648,59.847,36.637,59.847,37.854"/>
				</g>
			</g>
		</g>
	</g>
	<g>
		<g>
			<g>
				<defs>
					<rect id="SVGID_37_" x="0.859" y="12.053" width="156.986" height="57.947"/>
				</defs>
				<clipPath id="SVGID_38_">
					<use xlink:href="#SVGID_37_"  overflow="visible"/>
				</clipPath>
				<g clip-path="url(#SVGID_38_)">
					<polygon fill="#D1B295" points="83.565,61.74 75.639,61.74 76.951,29.846 82.539,29.846 					"/>
				</g>
			</g>
		</g>
		<g>
			<g>
				<defs>
					<rect id="SVGID_39_" x="0.859" y="12.053" width="156.986" height="57.947"/>
				</defs>
				<clipPath id="SVGID_40_">
					<use xlink:href="#SVGID_39_"  overflow="visible"/>
				</clipPath>
				<g clip-path="url(#SVGID_40_)">
					<path fill="#F05432" d="M90.746,30.727c0.264-0.815,0.42-1.27,0.42-1.961c0-4.191-5.178-7.57-11.563-7.57
						s-11.563,3.371-11.563,7.56c0,0.693,0.154,1.156,0.42,1.974h22.287V30.727z"/>
				</g>
			</g>
		</g>
	</g>
	<g>
		<g>
			<g>
				<defs>
					<rect id="SVGID_41_" x="0.859" y="12.053" width="156.986" height="57.947"/>
				</defs>
				<clipPath id="SVGID_42_">
					<use xlink:href="#SVGID_41_"  overflow="visible"/>
				</clipPath>
				<g clip-path="url(#SVGID_42_)">
					<polygon fill="#D1B295" points="108.844,61.633 100.918,61.633 102.088,43.173 107.674,43.173 					"/>
				</g>
			</g>
		</g>
		<g>
			<g>
				<defs>
					<rect id="SVGID_43_" x="0.859" y="12.053" width="156.986" height="57.947"/>
				</defs>
				<clipPath id="SVGID_44_">
					<use xlink:href="#SVGID_43_"  overflow="visible"/>
				</clipPath>
				<g clip-path="url(#SVGID_44_)">
					<path fill="#A7B9E0" d="M115.881,44.611c0.266-1.635,0.42-1.549,0.42-2.241c0-4.19-5.178-7.71-11.563-7.71
						c-6.385,0-11.563,3.58-11.563,7.771c0,0.691,0.154,0.547,0.42,2.18H115.881L115.881,44.611z"/>
				</g>
			</g>
		</g>
	</g>
	<g>
		<g>
			<g>
				<defs>
					<path id="SVGID_45_" d="M93.174,42.432c0,0.691,0.153,0.547,0.42,2.18h22.287c0.266-1.633,0.42-1.551,0.42-2.24
						c0-4.189-5.178-7.71-11.563-7.71C98.353,34.66,93.174,38.24,93.174,42.432"/>
				</defs>
				<clipPath id="SVGID_46_">
					<use xlink:href="#SVGID_45_"  overflow="visible"/>
				</clipPath>
				<g clip-path="url(#SVGID_46_)">
					<path fill="#FFFFFF" d="M100.918,36.689c0,1.219-0.987,2.207-2.207,2.207c-1.219,0-2.207-0.988-2.207-2.207
						s0.988-2.207,2.207-2.207S100.918,35.471,100.918,36.689"/>
				</g>
			</g>
		</g>
		<g>
			<g>
				<defs>
					<path id="SVGID_47_" d="M93.174,42.432c0,0.691,0.153,0.547,0.42,2.18h22.287c0.266-1.633,0.42-1.551,0.42-2.24
						c0-4.189-5.178-7.71-11.563-7.71C98.353,34.66,93.174,38.24,93.174,42.432"/>
				</defs>
				<clipPath id="SVGID_48_">
					<use xlink:href="#SVGID_47_"  overflow="visible"/>
				</clipPath>
				<g clip-path="url(#SVGID_48_)">
					<path fill="#FFFFFF" d="M110.104,41.713c0,0.697-0.563,1.262-1.261,1.262c-0.695,0-1.262-0.563-1.262-1.262
						c0-0.695,0.565-1.261,1.262-1.261C109.541,40.452,110.104,41.018,110.104,41.713"/>
				</g>
			</g>
		</g>
		<g>
			<g>
				<defs>
					<path id="SVGID_49_" d="M93.174,42.432c0,0.691,0.153,0.547,0.42,2.18h22.287c0.266-1.633,0.42-1.551,0.42-2.24
						c0-4.189-5.178-7.71-11.563-7.71C98.353,34.66,93.174,38.24,93.174,42.432"/>
				</defs>
				<clipPath id="SVGID_50_">
					<use xlink:href="#SVGID_49_"  overflow="visible"/>
				</clipPath>
				<g clip-path="url(#SVGID_50_)">
					<path fill="#FFFFFF" d="M113.527,36.43c0,1.072-0.871,1.943-1.945,1.943s-1.945-0.871-1.945-1.943
						c0-1.076,0.871-1.945,1.945-1.945C112.656,34.482,113.527,35.354,113.527,36.43"/>
				</g>
			</g>
		</g>
		<g>
			<g>
				<defs>
					<path id="SVGID_51_" d="M93.174,42.432c0,0.691,0.153,0.547,0.42,2.18h22.287c0.266-1.633,0.42-1.551,0.42-2.24
						c0-4.189-5.178-7.71-11.563-7.71C98.353,34.66,93.174,38.24,93.174,42.432"/>
				</defs>
				<clipPath id="SVGID_52_">
					<use xlink:href="#SVGID_51_"  overflow="visible"/>
				</clipPath>
				<g clip-path="url(#SVGID_52_)">
					<path fill="#FFFFFF" d="M99.899,43.41c0,0.938-0.76,1.697-1.697,1.697c-0.937,0-1.698-0.76-1.698-1.697
						c0-0.936,0.762-1.697,1.698-1.697C99.14,41.713,99.899,42.475,99.899,43.41"/>
				</g>
			</g>
		</g>
		<g>
			<g>
				<defs>
					<path id="SVGID_53_" d="M93.174,42.432c0,0.691,0.153,0.547,0.42,2.18h22.287c0.266-1.633,0.42-1.551,0.42-2.24
						c0-4.189-5.178-7.71-11.563-7.71C98.353,34.66,93.174,38.24,93.174,42.432"/>
				</defs>
				<clipPath id="SVGID_54_">
					<use xlink:href="#SVGID_53_"  overflow="visible"/>
				</clipPath>
				<g clip-path="url(#SVGID_54_)">
					<path fill="#FFFFFF" d="M115.881,42.979c0,0.979-0.797,1.778-1.779,1.778c-0.983,0-1.778-0.799-1.778-1.778
						c0-0.982,0.795-1.781,1.778-1.781C115.084,41.197,115.881,41.995,115.881,42.979"/>
				</g>
			</g>
		</g>
		<g>
			<g>
				<defs>
					<path id="SVGID_55_" d="M93.174,42.432c0,0.691,0.153,0.547,0.42,2.18h22.287c0.266-1.633,0.42-1.551,0.42-2.24
						c0-4.189-5.178-7.71-11.563-7.71C98.353,34.66,93.174,38.24,93.174,42.432"/>
				</defs>
				<clipPath id="SVGID_56_">
					<use xlink:href="#SVGID_55_"  overflow="visible"/>
				</clipPath>
				<g clip-path="url(#SVGID_56_)">
					<path fill="#FFFFFF" d="M95.256,39.413c0,0.573-0.467,1.039-1.041,1.039s-1.041-0.466-1.041-1.039
						c0-0.575,0.467-1.04,1.041-1.04C94.791,38.373,95.256,38.838,95.256,39.413"/>
				</g>
			</g>
		</g>
		<g>
			<g>
				<defs>
					<path id="SVGID_57_" d="M93.174,42.432c0,0.691,0.153,0.547,0.42,2.18h22.287c0.266-1.633,0.42-1.551,0.42-2.24
						c0-4.189-5.178-7.71-11.563-7.71C98.353,34.66,93.174,38.24,93.174,42.432"/>
				</defs>
				<clipPath id="SVGID_58_">
					<use xlink:href="#SVGID_57_"  overflow="visible"/>
				</clipPath>
				<g clip-path="url(#SVGID_58_)">
					<path fill="#FFFFFF" d="M106.873,38.896c0,1.219-0.988,2.207-2.207,2.207s-2.207-0.988-2.207-2.207s0.988-2.207,2.207-2.207
						C105.883,36.689,106.873,37.678,106.873,38.896"/>
				</g>
			</g>
		</g>
	</g>
	<g>
		<g>
			<g>
				<defs>
					<rect id="SVGID_59_" x="0.859" y="12.053" width="156.986" height="57.947"/>
				</defs>
				<clipPath id="SVGID_60_">
					<use xlink:href="#SVGID_59_"  overflow="visible"/>
				</clipPath>
				<g clip-path="url(#SVGID_60_)">
					<polygon fill="#D1B295" points="139.301,59.548 131.373,59.548 132.543,41.088 138.131,41.088 					"/>
				</g>
			</g>
		</g>
		<g>
			<g>
				<defs>
					<rect id="SVGID_61_" x="0.859" y="12.053" width="156.986" height="57.947"/>
				</defs>
				<clipPath id="SVGID_62_">
					<use xlink:href="#SVGID_61_"  overflow="visible"/>
				</clipPath>
				<g clip-path="url(#SVGID_62_)">
					<path fill="#F387AE" d="M146.338,42.161c0.265-0.817,0.42-1.367,0.42-2.06c0-4.19-5.178-7.617-11.563-7.617
						s-11.562,3.443-11.562,7.634c0,0.692,0.152,1.228,0.418,2.044L146.338,42.161L146.338,42.161z"/>
				</g>
			</g>
		</g>
	</g>
	<g>
		<g>
			<g>
				<defs>
					<path id="SVGID_63_" d="M123.631,40.117c0,0.691,0.153,1.227,0.42,2.044h22.287c0.265-0.817,0.42-1.366,0.42-2.06
						c0-4.19-5.179-7.617-11.563-7.617C128.807,32.484,123.631,35.928,123.631,40.117"/>
				</defs>
				<clipPath id="SVGID_64_">
					<use xlink:href="#SVGID_63_"  overflow="visible"/>
				</clipPath>
				<g clip-path="url(#SVGID_64_)">
					<path fill="#FFFFFF" d="M131.372,34.604c0,1.219-0.987,2.209-2.206,2.209c-1.218,0-2.205-0.99-2.205-2.209
						c0-1.217,0.987-2.205,2.205-2.205C130.385,32.398,131.372,33.387,131.372,34.604"/>
				</g>
			</g>
		</g>
		<g>
			<g>
				<defs>
					<path id="SVGID_65_" d="M123.631,40.117c0,0.691,0.153,1.227,0.42,2.044h22.287c0.265-0.817,0.42-1.366,0.42-2.06
						c0-4.19-5.179-7.617-11.563-7.617C128.807,32.484,123.631,35.928,123.631,40.117"/>
				</defs>
				<clipPath id="SVGID_66_">
					<use xlink:href="#SVGID_65_"  overflow="visible"/>
				</clipPath>
				<g clip-path="url(#SVGID_66_)">
					<path fill="#FFFFFF" d="M140.56,39.628c0,0.698-0.563,1.263-1.261,1.263c-0.695,0-1.261-0.564-1.261-1.263
						c0-0.696,0.564-1.26,1.261-1.26C139.997,38.368,140.56,38.932,140.56,39.628"/>
				</g>
			</g>
		</g>
		<g>
			<g>
				<defs>
					<path id="SVGID_67_" d="M123.631,40.117c0,0.691,0.153,1.227,0.42,2.044h22.287c0.265-0.817,0.42-1.366,0.42-2.06
						c0-4.19-5.179-7.617-11.563-7.617C128.807,32.484,123.631,35.928,123.631,40.117"/>
				</defs>
				<clipPath id="SVGID_68_">
					<use xlink:href="#SVGID_67_"  overflow="visible"/>
				</clipPath>
				<g clip-path="url(#SVGID_68_)">
					<path fill="#FFFFFF" d="M143.982,34.344c0,1.072-0.87,1.943-1.944,1.943c-1.073,0-1.944-0.87-1.944-1.943
						c0-1.074,0.869-1.945,1.944-1.945C143.112,32.398,143.982,33.27,143.982,34.344"/>
				</g>
			</g>
		</g>
		<g>
			<g>
				<defs>
					<path id="SVGID_69_" d="M123.631,40.117c0,0.691,0.153,1.227,0.42,2.044h22.287c0.265-0.817,0.42-1.366,0.42-2.06
						c0-4.19-5.179-7.617-11.563-7.617C128.807,32.484,123.631,35.928,123.631,40.117"/>
				</defs>
				<clipPath id="SVGID_70_">
					<use xlink:href="#SVGID_69_"  overflow="visible"/>
				</clipPath>
				<g clip-path="url(#SVGID_70_)">
					<path fill="#FFFFFF" d="M130.355,41.325c0,0.938-0.762,1.696-1.698,1.696s-1.698-0.76-1.698-1.696s0.762-1.695,1.698-1.695
						S130.355,40.389,130.355,41.325"/>
				</g>
			</g>
		</g>
		<g>
			<g>
				<defs>
					<path id="SVGID_71_" d="M123.631,40.117c0,0.691,0.153,1.227,0.42,2.044h22.287c0.265-0.817,0.42-1.366,0.42-2.06
						c0-4.19-5.179-7.617-11.563-7.617C128.807,32.484,123.631,35.928,123.631,40.117"/>
				</defs>
				<clipPath id="SVGID_72_">
					<use xlink:href="#SVGID_71_"  overflow="visible"/>
				</clipPath>
				<g clip-path="url(#SVGID_72_)">
					<path fill="#FFFFFF" d="M146.338,40.895c0,0.981-0.797,1.777-1.778,1.777c-0.983,0-1.78-0.796-1.78-1.777
						c0-0.982,0.797-1.779,1.78-1.779C145.541,39.113,146.338,39.91,146.338,40.895"/>
				</g>
			</g>
		</g>
		<g>
			<g>
				<defs>
					<path id="SVGID_73_" d="M123.631,40.117c0,0.691,0.153,1.227,0.42,2.044h22.287c0.265-0.817,0.42-1.366,0.42-2.06
						c0-4.19-5.179-7.617-11.563-7.617C128.807,32.484,123.631,35.928,123.631,40.117"/>
				</defs>
				<clipPath id="SVGID_74_">
					<use xlink:href="#SVGID_73_"  overflow="visible"/>
				</clipPath>
				<g clip-path="url(#SVGID_74_)">
					<path fill="#FFFFFF" d="M125.711,37.327c0,0.575-0.466,1.04-1.039,1.04c-0.575,0-1.039-0.465-1.039-1.04
						c0-0.573,0.464-1.04,1.039-1.04C125.245,36.287,125.711,36.754,125.711,37.327"/>
				</g>
			</g>
		</g>
		<g>
			<g>
				<defs>
					<path id="SVGID_75_" d="M123.631,40.117c0,0.691,0.153,1.227,0.42,2.044h22.287c0.265-0.817,0.42-1.366,0.42-2.06
						c0-4.19-5.179-7.617-11.563-7.617C128.807,32.484,123.631,35.928,123.631,40.117"/>
				</defs>
				<clipPath id="SVGID_76_">
					<use xlink:href="#SVGID_75_"  overflow="visible"/>
				</clipPath>
				<g clip-path="url(#SVGID_76_)">
					<path fill="#FFFFFF" d="M137.328,36.811c0,1.219-0.988,2.209-2.207,2.209c-1.218,0-2.205-0.99-2.205-2.209
						c0-1.217,0.987-2.205,2.205-2.205C136.34,34.605,137.328,35.594,137.328,36.811"/>
				</g>
			</g>
		</g>
	</g>
	<g>
		<g>
			<g>
				<defs>
					<rect id="SVGID_77_" x="0.859" y="12.053" width="156.986" height="57.947"/>
				</defs>
				<clipPath id="SVGID_78_">
					<use xlink:href="#SVGID_77_"  overflow="visible"/>
				</clipPath>
				<g clip-path="url(#SVGID_78_)">
					<path fill="#8EC540" d="M5.364,73.587c-1.832,0-3.316-1.481-3.316-3.313V59.675c0-1.829,1.484-3.313,3.316-3.313
						c1.83,0,3.315,1.484,3.315,3.313v10.599C8.678,72.104,7.194,73.587,5.364,73.587"/>
				</g>
			</g>
		</g>
		<g>
			<g>
				<defs>
					<rect id="SVGID_79_" x="0.859" y="12.053" width="156.986" height="57.947"/>
				</defs>
				<clipPath id="SVGID_80_">
					<use xlink:href="#SVGID_79_"  overflow="visible"/>
				</clipPath>
				<g clip-path="url(#SVGID_80_)">
					<path fill="#BCD647" d="M12.409,74.98c-2.06,0-3.73-1.67-3.73-3.729v-13.89c0-2.062,1.67-3.731,3.73-3.731
						c2.059,0,3.729,1.671,3.729,3.731v13.89C16.139,73.313,14.468,74.98,12.409,74.98"/>
				</g>
			</g>
		</g>
		<g>
			<g>
				<defs>
					<rect id="SVGID_81_" x="0.859" y="12.053" width="156.986" height="57.947"/>
				</defs>
				<clipPath id="SVGID_82_">
					<use xlink:href="#SVGID_81_"  overflow="visible"/>
				</clipPath>
				<g clip-path="url(#SVGID_82_)">
					<path fill="#8EC540" d="M19.868,76.293c-2.06,0-3.729-1.67-3.729-3.729V49.986c0-2.061,1.67-3.729,3.729-3.729
						c2.059,0,3.729,1.671,3.729,3.729v22.576C23.6,74.623,21.928,76.293,19.868,76.293"/>
				</g>
			</g>
		</g>
		<g>
			<g>
				<defs>
					<rect id="SVGID_83_" x="0.859" y="12.053" width="156.986" height="57.947"/>
				</defs>
				<clipPath id="SVGID_84_">
					<use xlink:href="#SVGID_83_"  overflow="visible"/>
				</clipPath>
				<g clip-path="url(#SVGID_84_)">
					<path fill="#8EC540" d="M26.5,74.152c-1.602,0-2.901-1.299-2.901-2.901V60.635c0-1.604,1.299-2.902,2.901-2.902
						c1.604,0,2.902,1.299,2.902,2.902v10.616C29.401,72.854,28.104,74.152,26.5,74.152"/>
				</g>
			</g>
		</g>
		<g>
			<g>
				<defs>
					<rect id="SVGID_85_" x="0.859" y="12.053" width="156.986" height="57.947"/>
				</defs>
				<clipPath id="SVGID_86_">
					<use xlink:href="#SVGID_85_"  overflow="visible"/>
				</clipPath>
				<g clip-path="url(#SVGID_86_)">
					<path fill="#6BA542" d="M33.131,74.014c-2.059,0-3.729-1.67-3.729-3.729V55.986c0-2.061,1.67-3.73,3.729-3.73
						c2.06,0,3.73,1.672,3.73,3.73v14.298C36.862,72.344,35.192,74.014,33.131,74.014"/>
				</g>
			</g>
		</g>
		<g>
			<g>
				<defs>
					<rect id="SVGID_87_" x="0.859" y="12.053" width="156.986" height="57.947"/>
				</defs>
				<clipPath id="SVGID_88_">
					<use xlink:href="#SVGID_87_"  overflow="visible"/>
				</clipPath>
				<g clip-path="url(#SVGID_88_)">
					<path fill="#8EC540" d="M40.591,74.014c-2.06,0-3.729-1.67-3.729-3.729V58.749c0-2.06,1.67-3.729,3.729-3.729
						c2.06,0,3.73,1.67,3.73,3.729v11.535C44.322,72.344,42.651,74.014,40.591,74.014"/>
				</g>
			</g>
		</g>
		<g>
			<g>
				<defs>
					<rect id="SVGID_89_" x="0.859" y="12.053" width="156.986" height="57.947"/>
				</defs>
				<clipPath id="SVGID_90_">
					<use xlink:href="#SVGID_89_"  overflow="visible"/>
				</clipPath>
				<g clip-path="url(#SVGID_90_)">
					<path fill="#BCD647" d="M48.051,73.768c-2.06,0-3.73-1.67-3.73-3.729V51.564c0-2.062,1.67-3.73,3.73-3.73
						c2.059,0,3.73,1.67,3.73,3.73v18.474C51.782,72.098,50.111,73.768,48.051,73.768"/>
				</g>
			</g>
		</g>
		<g>
			<g>
				<defs>
					<rect id="SVGID_91_" x="0.859" y="12.053" width="156.986" height="57.947"/>
				</defs>
				<clipPath id="SVGID_92_">
					<use xlink:href="#SVGID_91_"  overflow="visible"/>
				</clipPath>
				<g clip-path="url(#SVGID_92_)">
					<path fill="#6BA542" d="M55.097,73.322c-1.831,0-3.314-1.482-3.314-3.314V54.396c0-1.83,1.483-3.314,3.314-3.314
						c1.833,0,3.315,1.484,3.315,3.314v15.61C58.413,71.84,56.928,73.322,55.097,73.322"/>
				</g>
			</g>
		</g>
		<g>
			<g>
				<defs>
					<rect id="SVGID_93_" x="0.859" y="12.053" width="156.986" height="57.947"/>
				</defs>
				<clipPath id="SVGID_94_">
					<use xlink:href="#SVGID_93_"  overflow="visible"/>
				</clipPath>
				<g clip-path="url(#SVGID_94_)">
					<path fill="#8EC540" d="M62.143,74.531c-2.059,0-3.729-1.67-3.729-3.729V56.911c0-2.06,1.671-3.729,3.729-3.729
						c2.06,0,3.73,1.67,3.73,3.729v13.892C65.873,72.861,64.203,74.531,62.143,74.531"/>
				</g>
			</g>
		</g>
		<g>
			<g>
				<defs>
					<rect id="SVGID_95_" x="0.859" y="12.053" width="156.986" height="57.947"/>
				</defs>
				<clipPath id="SVGID_96_">
					<use xlink:href="#SVGID_95_"  overflow="visible"/>
				</clipPath>
				<g clip-path="url(#SVGID_96_)">
					<path fill="#BCD647" d="M69.603,75.314c-2.06,0-3.729-1.67-3.729-3.729V51.76c0-2.06,1.672-3.729,3.729-3.729
						c2.06,0,3.729,1.67,3.729,3.729v19.826C73.334,73.646,71.663,75.314,69.603,75.314"/>
				</g>
			</g>
		</g>
		<g>
			<g>
				<defs>
					<rect id="SVGID_97_" x="0.859" y="12.053" width="156.986" height="57.947"/>
				</defs>
				<clipPath id="SVGID_98_">
					<use xlink:href="#SVGID_97_"  overflow="visible"/>
				</clipPath>
				<g clip-path="url(#SVGID_98_)">
					<path fill="#8EC540" d="M76.234,72.727c-1.604,0-2.9-1.299-2.9-2.9V59.208c0-1.604,1.297-2.901,2.9-2.901
						c1.602,0,2.9,1.299,2.9,2.901v10.617C79.135,71.428,77.836,72.727,76.234,72.727"/>
				</g>
			</g>
		</g>
		<g>
			<g>
				<defs>
					<rect id="SVGID_99_" x="0.859" y="12.053" width="156.986" height="57.947"/>
				</defs>
				<clipPath id="SVGID_100_">
					<use xlink:href="#SVGID_99_"  overflow="visible"/>
				</clipPath>
				<g clip-path="url(#SVGID_100_)">
					<path fill="#BCD647" d="M82.875,75.072c-2.061,0-3.729-1.67-3.729-3.729V57.452c0-2.06,1.669-3.729,3.729-3.729
						s3.729,1.67,3.729,3.729v13.892C86.604,73.402,84.936,75.072,82.875,75.072"/>
				</g>
			</g>
		</g>
		<g>
			<g>
				<defs>
					<rect id="SVGID_101_" x="0.859" y="12.053" width="156.986" height="57.947"/>
				</defs>
				<clipPath id="SVGID_102_">
					<use xlink:href="#SVGID_101_"  overflow="visible"/>
				</clipPath>
				<g clip-path="url(#SVGID_102_)">
					<path fill="#8EC540" d="M90.334,76.387c-2.06,0-3.729-1.671-3.729-3.73V50.077c0-2.06,1.67-3.729,3.729-3.729
						c2.062,0,3.731,1.672,3.731,3.729v22.577C94.065,74.716,92.395,76.387,90.334,76.387"/>
				</g>
			</g>
		</g>
		<g>
			<g>
				<defs>
					<rect id="SVGID_103_" x="0.859" y="12.053" width="156.986" height="57.947"/>
				</defs>
				<clipPath id="SVGID_104_">
					<use xlink:href="#SVGID_103_"  overflow="visible"/>
				</clipPath>
				<g clip-path="url(#SVGID_104_)">
					<path fill="#8EC540" d="M96.967,74.243c-1.604,0-2.903-1.3-2.903-2.899V60.727c0-1.603,1.3-2.9,2.903-2.9
						c1.602,0,2.899,1.299,2.899,2.9v10.617C99.867,72.943,98.568,74.243,96.967,74.243"/>
				</g>
			</g>
		</g>
		<g>
			<g>
				<defs>
					<rect id="SVGID_105_" x="0.859" y="12.053" width="156.986" height="57.947"/>
				</defs>
				<clipPath id="SVGID_106_">
					<use xlink:href="#SVGID_105_"  overflow="visible"/>
				</clipPath>
				<g clip-path="url(#SVGID_106_)">
					<path fill="#6BA542" d="M103.597,74.105c-2.061,0-3.729-1.67-3.729-3.73V56.076c0-2.061,1.67-3.729,3.729-3.729
						c2.059,0,3.729,1.67,3.729,3.729v14.299C107.328,72.436,105.658,74.105,103.597,74.105"/>
				</g>
			</g>
		</g>
		<g>
			<g>
				<defs>
					<rect id="SVGID_107_" x="0.859" y="12.053" width="156.986" height="57.947"/>
				</defs>
				<clipPath id="SVGID_108_">
					<use xlink:href="#SVGID_107_"  overflow="visible"/>
				</clipPath>
				<g clip-path="url(#SVGID_108_)">
					<path fill="#8EC540" d="M111.058,74.105c-2.061,0-3.73-1.67-3.73-3.73V58.84c0-2.061,1.671-3.729,3.73-3.729
						c2.059,0,3.729,1.67,3.729,3.729v11.535C114.787,72.436,113.117,74.105,111.058,74.105"/>
				</g>
			</g>
		</g>
		<g>
			<g>
				<defs>
					<rect id="SVGID_109_" x="0.859" y="12.053" width="156.986" height="57.947"/>
				</defs>
				<clipPath id="SVGID_110_">
					<use xlink:href="#SVGID_109_"  overflow="visible"/>
				</clipPath>
				<g clip-path="url(#SVGID_110_)">
					<path fill="#BCD647" d="M118.517,73.859c-2.06,0-3.729-1.672-3.729-3.729V51.656c0-2.061,1.672-3.729,3.729-3.729
						c2.061,0,3.73,1.67,3.73,3.729V70.13C122.248,72.188,120.577,73.859,118.517,73.859"/>
				</g>
			</g>
		</g>
		<g>
			<g>
				<defs>
					<rect id="SVGID_111_" x="0.859" y="12.053" width="156.986" height="57.947"/>
				</defs>
				<clipPath id="SVGID_112_">
					<use xlink:href="#SVGID_111_"  overflow="visible"/>
				</clipPath>
				<g clip-path="url(#SVGID_112_)">
					<path fill="#6BA542" d="M125.563,73.416c-1.831,0-3.315-1.486-3.315-3.316V54.488c0-1.83,1.482-3.315,3.315-3.315
						c1.831,0,3.313,1.483,3.313,3.315V70.1C128.879,71.93,127.394,73.416,125.563,73.416"/>
				</g>
			</g>
		</g>
		<g>
			<g>
				<defs>
					<rect id="SVGID_113_" x="0.859" y="12.053" width="156.986" height="57.947"/>
				</defs>
				<clipPath id="SVGID_114_">
					<use xlink:href="#SVGID_113_"  overflow="visible"/>
				</clipPath>
				<g clip-path="url(#SVGID_114_)">
					<path fill="#8EC540" d="M132.607,74.623c-2.059,0-3.729-1.671-3.729-3.73v-13.89c0-2.062,1.67-3.729,3.729-3.729
						c2.061,0,3.73,1.67,3.73,3.729v13.89C136.338,72.952,134.668,74.623,132.607,74.623"/>
				</g>
			</g>
		</g>
		<g>
			<g>
				<defs>
					<rect id="SVGID_115_" x="0.859" y="12.053" width="156.986" height="57.947"/>
				</defs>
				<clipPath id="SVGID_116_">
					<use xlink:href="#SVGID_115_"  overflow="visible"/>
				</clipPath>
				<g clip-path="url(#SVGID_116_)">
					<path fill="#BCD647" d="M140.067,75.406c-2.06,0-3.729-1.672-3.729-3.729V51.854c0-2.062,1.672-3.73,3.729-3.73
						c2.062,0,3.729,1.67,3.729,3.73v19.824C143.799,73.734,142.129,75.406,140.067,75.406"/>
				</g>
			</g>
		</g>
		<g>
			<g>
				<defs>
					<rect id="SVGID_117_" x="0.859" y="12.053" width="156.986" height="57.947"/>
				</defs>
				<clipPath id="SVGID_118_">
					<use xlink:href="#SVGID_117_"  overflow="visible"/>
				</clipPath>
				<g clip-path="url(#SVGID_118_)">
					<path fill="#8EC540" d="M146.7,72.816c-1.603,0-2.901-1.299-2.901-2.899V59.299c0-1.602,1.3-2.9,2.901-2.9
						c1.603,0,2.9,1.299,2.9,2.9v10.618C149.601,71.52,148.303,72.816,146.7,72.816"/>
				</g>
			</g>
		</g>
	</g>
</g>
</svg>
