<?xml version="1.0" encoding="utf-8"?>
<!-- Generator: Adobe Illustrator 15.1.0, SVG Export Plug-In . SVG Version: 6.00 Build 0)  -->
<!DOCTYPE svg PUBLIC "-//W3C//DTD SVG 1.1//EN" "http://www.w3.org/Graphics/SVG/1.1/DTD/svg11.dtd">
<svg version="1.1" id="Layer_1" xmlns="http://www.w3.org/2000/svg" xmlns:xlink="http://www.w3.org/1999/xlink" x="0px" y="0px"
	 width="150px" height="50px" viewBox="0 20 150 50" enable-background="new 0 20 150 50" xml:space="preserve">
<rect x="162.459" y="-82.356" fill="none" width="152.105" height="56.146"/>
<g>
	<g>
		<g>
			<g>
				<g>
					<defs>
						<rect id="SVGID_1_" x="-59.433" y="10.375" width="149.497" height="55.182"/>
					</defs>
					<clipPath id="SVGID_2_">
						<use xlink:href="#SVGID_1_"  overflow="visible"/>
					</clipPath>
					<path clip-path="url(#SVGID_2_)" fill="#A29A98" d="M71.514,55.834c0-14.403-15.07-26.083-33.656-26.083
						c-18.588,0-33.661,11.679-33.661,26.083c0,10.424,14.129,11.652,32.718,11.652C55.502,67.486,71.514,67.301,71.514,55.834"/>
				</g>
			</g>
		</g>
	</g>
	<g>
		<g>
			<g>
				<g>
					<defs>
						<path id="SVGID_3_" d="M4.195,55.834c0,5.197,3.516,8.111,9.348,9.725h49.181c5.429-1.586,8.79-4.473,8.79-9.725
							c0-14.403-15.071-26.083-33.657-26.083C19.266,29.751,4.195,41.429,4.195,55.834"/>
					</defs>
					<clipPath id="SVGID_4_">
						<use xlink:href="#SVGID_3_"  overflow="visible"/>
					</clipPath>
					<path clip-path="url(#SVGID_4_)" fill="#BCB6B5" d="M21.147,29.314c-1.516,1.171-1.691,4.682,0,5.319
						c1.692,0.639,30.404-1.374,31.896,7.874c1.49,9.251-1.639,24.132-3.385,25.112c10.762,0.688,26.015,0,26.015,0
						s-2.406-27.237-2.494-28.091c-0.089-0.85-13.187-12.556-14.076-14.043C58.21,23.993,21.147,29.314,21.147,29.314"/>
				</g>
			</g>
		</g>
		<g>
			<g>
				<g>
					<defs>
						<path id="SVGID_5_" d="M4.195,55.834c0,5.197,3.516,8.111,9.348,9.725h49.181c5.429-1.586,8.79-4.473,8.79-9.725
							c0-14.403-15.071-26.083-33.657-26.083C19.266,29.751,4.195,41.429,4.195,55.834"/>
					</defs>
					<clipPath id="SVGID_6_">
						<use xlink:href="#SVGID_5_"  overflow="visible"/>
					</clipPath>
					<path clip-path="url(#SVGID_6_)" fill="#E8E7E5" d="M45.057,20.976c-3.521,0-19.12,7.611-21.903,11.388
						c-5.581,2.652,32.027-4.114,36.465,10.151c2.71,8.711-5.816,26.632,0.802,26.632c6.624,0,13.246,0.834,13.246,0.834
						l-4.34-44.966L45.057,20.976z"/>
				</g>
			</g>
		</g>
		<g>
			<g>
				<g>
					<defs>
						<path id="SVGID_7_" d="M4.195,55.834c0,5.197,3.516,8.111,9.348,9.725h49.181c5.429-1.586,8.79-4.473,8.79-9.725
							c0-14.403-15.071-26.083-33.657-26.083C19.266,29.751,4.195,41.429,4.195,55.834"/>
					</defs>
					<clipPath id="SVGID_8_">
						<use xlink:href="#SVGID_7_"  overflow="visible"/>
					</clipPath>
					<path clip-path="url(#SVGID_8_)" fill="#757575" d="M10.182,38.293C8.03,49.116,34.381,40.429,37.854,48.62
						c3.475,8.192-5.12,19.198-6.727,19.212c-1.608,0.014-34.991,0.99-34.991,0.99L10.182,38.293z"/>
				</g>
			</g>
		</g>
		<g>
			<g>
				<g>
					<defs>
						<path id="SVGID_9_" d="M4.195,55.834c0,5.197,3.516,8.111,9.348,9.725h49.181c5.429-1.586,8.79-4.473,8.79-9.725
							c0-14.403-15.071-26.083-33.657-26.083C19.266,29.751,4.195,41.429,4.195,55.834"/>
					</defs>
					<clipPath id="SVGID_10_">
						<use xlink:href="#SVGID_9_"  overflow="visible"/>
					</clipPath>
					<path clip-path="url(#SVGID_10_)" fill="#5C5C5C" d="M6.269,44.53c-2.073,11.304,12.827,5.002,23.25,5.32
						c10.422,0.316,7.733,14.175,5.15,18.749c-3.775,2.008-38.533,0.223-38.533,0.223L6.269,44.53z"/>
				</g>
			</g>
		</g>
	</g>
</g>
<g>
	<g>
		<g>
			<g>
				<g>
					<defs>
						<rect id="SVGID_11_" x="-22.803" y="-2.548" width="192.634" height="71.103"/>
					</defs>
					<clipPath id="SVGID_12_">
						<use xlink:href="#SVGID_11_"  overflow="visible"/>
					</clipPath>
					<path clip-path="url(#SVGID_12_)" fill="#A29A98" d="M145.929,56.027c0-18.559-19.421-33.608-43.368-33.608
						c-23.951,0-43.375,15.049-43.375,33.608c0,13.43,18.206,15.016,42.159,15.016C125.295,71.043,145.929,70.805,145.929,56.027"/>
				</g>
			</g>
		</g>
	</g>
	<g>
		<g>
			<g>
				<g>
					<defs>
						<path id="SVGID_13_" d="M59.185,56.027c0,6.697,4.53,10.453,12.045,12.531h63.372c6.994-2.043,11.326-5.764,11.326-12.531
							c0-18.559-19.421-33.608-43.37-33.608C78.604,22.419,59.185,37.465,59.185,56.027"/>
					</defs>
					<clipPath id="SVGID_14_">
						<use xlink:href="#SVGID_13_"  overflow="visible"/>
					</clipPath>
					<path clip-path="url(#SVGID_14_)" fill="#BCB6B5" d="M81.028,21.855c-1.953,1.509-2.18,6.033,0,6.854
						c2.181,0.823,39.178-1.77,41.101,10.146c1.92,11.92-2.113,31.094-4.362,32.359c13.868,0.883,33.521,0,33.521,0
						s-3.102-35.099-3.214-36.198c-0.115-1.095-16.991-16.179-18.14-18.095C128.784,15,81.028,21.855,81.028,21.855"/>
				</g>
			</g>
		</g>
		<g>
			<g>
				<g>
					<defs>
						<path id="SVGID_15_" d="M59.185,56.027c0,6.697,4.53,10.453,12.045,12.531h63.372c6.994-2.043,11.326-5.764,11.326-12.531
							c0-18.559-19.421-33.608-43.37-33.608C78.604,22.419,59.185,37.465,59.185,56.027"/>
					</defs>
					<clipPath id="SVGID_16_">
						<use xlink:href="#SVGID_15_"  overflow="visible"/>
					</clipPath>
					<path clip-path="url(#SVGID_16_)" fill="#E8E7E5" d="M111.837,11.112c-4.537,0-24.637,9.807-28.223,14.674
						c-7.193,3.417,41.268-5.302,46.985,13.079c3.491,11.226-7.495,34.319,1.035,34.319c8.533,0,17.065,1.072,17.065,1.072
						l-5.592-57.94L111.837,11.112z"/>
				</g>
			</g>
		</g>
		<g>
			<g>
				<g>
					<defs>
						<path id="SVGID_17_" d="M59.185,56.027c0,6.697,4.53,10.453,12.045,12.531h63.372c6.994-2.043,11.326-5.764,11.326-12.531
							c0-18.559-19.421-33.608-43.37-33.608C78.604,22.419,59.185,37.465,59.185,56.027"/>
					</defs>
					<clipPath id="SVGID_18_">
						<use xlink:href="#SVGID_17_"  overflow="visible"/>
					</clipPath>
					<path clip-path="url(#SVGID_18_)" fill="#757575" d="M66.898,33.426c-2.772,13.947,31.181,2.751,35.656,13.306
						c4.479,10.556-6.597,24.737-8.667,24.757c-2.073,0.018-45.088,1.273-45.088,1.273L66.898,33.426z"/>
				</g>
			</g>
		</g>
		<g>
			<g>
				<g>
					<defs>
						<path id="SVGID_19_" d="M59.185,56.027c0,6.697,4.53,10.453,12.045,12.531h63.372c6.994-2.043,11.326-5.764,11.326-12.531
							c0-18.559-19.421-33.608-43.37-33.608C78.604,22.419,59.185,37.465,59.185,56.027"/>
					</defs>
					<clipPath id="SVGID_20_">
						<use xlink:href="#SVGID_19_"  overflow="visible"/>
					</clipPath>
					<path clip-path="url(#SVGID_20_)" fill="#5C5C5C" d="M61.856,41.464c-2.671,14.563,16.529,6.443,29.958,6.852
						c13.43,0.411,9.967,18.267,6.638,24.161c-4.865,2.586-49.653,0.285-49.653,0.285L61.856,41.464z"/>
				</g>
			</g>
		</g>
	</g>
</g>
<g>
	<g>
		<g>
			<g>
				<defs>
					<rect id="SVGID_21_" x="1.948" y="13.854" width="152.105" height="56.146"/>
				</defs>
				<clipPath id="SVGID_22_">
					<use xlink:href="#SVGID_21_"  overflow="visible"/>
				</clipPath>
				<path clip-path="url(#SVGID_22_)" fill="#8EC540" d="M6.313,73.479c-1.774,0-3.213-1.439-3.213-3.213v-10.27
					c0-1.771,1.438-3.211,3.213-3.211s3.212,1.438,3.212,3.211v10.27C9.523,72.039,8.086,73.479,6.313,73.479"/>
			</g>
		</g>
	</g>
	<g>
		<g>
			<g>
				<defs>
					<rect id="SVGID_23_" x="1.948" y="13.854" width="152.105" height="56.146"/>
				</defs>
				<clipPath id="SVGID_24_">
					<use xlink:href="#SVGID_23_"  overflow="visible"/>
				</clipPath>
				<path clip-path="url(#SVGID_24_)" fill="#BCD647" d="M13.139,74.826c-1.995,0-3.614-1.617-3.614-3.613V57.754
					c0-1.996,1.619-3.613,3.614-3.613s3.613,1.617,3.613,3.613v13.459C16.753,73.209,15.134,74.826,13.139,74.826"/>
			</g>
		</g>
	</g>
	<g>
		<g>
			<g>
				<defs>
					<rect id="SVGID_25_" x="1.948" y="13.854" width="152.105" height="56.146"/>
				</defs>
				<clipPath id="SVGID_26_">
					<use xlink:href="#SVGID_25_"  overflow="visible"/>
				</clipPath>
				<path clip-path="url(#SVGID_26_)" fill="#8EC540" d="M20.366,76.1c-1.995,0-3.613-1.619-3.613-3.613V50.607
					c0-1.994,1.619-3.613,3.613-3.613c1.995,0,3.615,1.619,3.615,3.613v21.877C23.982,74.48,22.362,76.1,20.366,76.1"/>
			</g>
		</g>
	</g>
	<g>
		<g>
			<g>
				<defs>
					<rect id="SVGID_27_" x="1.948" y="13.854" width="152.105" height="56.146"/>
				</defs>
				<clipPath id="SVGID_28_">
					<use xlink:href="#SVGID_27_"  overflow="visible"/>
				</clipPath>
				<path clip-path="url(#SVGID_28_)" fill="#8EC540" d="M26.792,74.023c-1.552,0-2.812-1.258-2.812-2.813V60.924
					c0-1.551,1.26-2.809,2.812-2.809c1.553,0,2.812,1.258,2.812,2.809v10.289C29.603,72.766,28.345,74.023,26.792,74.023"/>
			</g>
		</g>
	</g>
	<g>
		<g>
			<g>
				<defs>
					<rect id="SVGID_29_" x="1.948" y="13.854" width="152.105" height="56.146"/>
				</defs>
				<clipPath id="SVGID_30_">
					<use xlink:href="#SVGID_29_"  overflow="visible"/>
				</clipPath>
				<path clip-path="url(#SVGID_30_)" fill="#6BA542" d="M33.217,73.891c-1.995,0-3.614-1.619-3.614-3.613V56.42
					c0-1.994,1.619-3.611,3.614-3.611s3.614,1.619,3.614,3.611v13.857C36.831,72.271,35.213,73.891,33.217,73.891"/>
			</g>
		</g>
	</g>
	<g>
		<g>
			<g>
				<defs>
					<rect id="SVGID_31_" x="1.948" y="13.854" width="152.105" height="56.146"/>
				</defs>
				<clipPath id="SVGID_32_">
					<use xlink:href="#SVGID_31_"  overflow="visible"/>
				</clipPath>
				<path clip-path="url(#SVGID_32_)" fill="#8EC540" d="M40.445,73.891c-1.995,0-3.613-1.619-3.613-3.613V59.1
					c0-1.996,1.618-3.613,3.613-3.613c1.997,0,3.615,1.617,3.615,3.613v11.178C44.06,72.271,42.442,73.891,40.445,73.891"/>
			</g>
		</g>
	</g>
	<g>
		<g>
			<g>
				<defs>
					<rect id="SVGID_33_" x="1.948" y="13.854" width="152.105" height="56.146"/>
				</defs>
				<clipPath id="SVGID_34_">
					<use xlink:href="#SVGID_33_"  overflow="visible"/>
				</clipPath>
				<path clip-path="url(#SVGID_34_)" fill="#BCD647" d="M47.674,73.65c-1.997,0-3.615-1.617-3.615-3.613V52.139
					c0-1.996,1.618-3.613,3.615-3.613c1.995,0,3.613,1.619,3.613,3.613v17.898C51.288,72.033,49.67,73.65,47.674,73.65"/>
			</g>
		</g>
	</g>
	<g>
		<g>
			<g>
				<defs>
					<rect id="SVGID_35_" x="1.948" y="13.854" width="152.105" height="56.146"/>
				</defs>
				<clipPath id="SVGID_36_">
					<use xlink:href="#SVGID_35_"  overflow="visible"/>
				</clipPath>
				<path clip-path="url(#SVGID_36_)" fill="#6BA542" d="M54.499,73.223c-1.772,0-3.212-1.439-3.212-3.213V54.881
					c0-1.771,1.438-3.211,3.212-3.211s3.214,1.438,3.214,3.211V70.01C57.713,71.781,56.274,73.223,54.499,73.223"/>
			</g>
		</g>
	</g>
	<g>
		<g>
			<g>
				<defs>
					<rect id="SVGID_37_" x="1.948" y="13.854" width="152.105" height="56.146"/>
				</defs>
				<clipPath id="SVGID_38_">
					<use xlink:href="#SVGID_37_"  overflow="visible"/>
				</clipPath>
				<path clip-path="url(#SVGID_38_)" fill="#8EC540" d="M61.327,74.393c-1.996,0-3.614-1.619-3.614-3.615V57.318
					c0-1.996,1.618-3.613,3.614-3.613c1.994,0,3.613,1.617,3.613,3.613v13.459C64.94,72.773,63.321,74.393,61.327,74.393"/>
			</g>
		</g>
	</g>
	<g>
		<g>
			<g>
				<defs>
					<rect id="SVGID_39_" x="1.948" y="13.854" width="152.105" height="56.146"/>
				</defs>
				<clipPath id="SVGID_40_">
					<use xlink:href="#SVGID_39_"  overflow="visible"/>
				</clipPath>
				<path clip-path="url(#SVGID_40_)" fill="#BCD647" d="M68.554,75.15c-1.995,0-3.613-1.619-3.613-3.615V52.328
					c0-1.994,1.618-3.613,3.613-3.613c1.997,0,3.615,1.619,3.615,3.613v19.207C72.169,73.531,70.551,75.15,68.554,75.15"/>
			</g>
		</g>
	</g>
	<g>
		<g>
			<g>
				<defs>
					<rect id="SVGID_41_" x="1.948" y="13.854" width="152.105" height="56.146"/>
				</defs>
				<clipPath id="SVGID_42_">
					<use xlink:href="#SVGID_41_"  overflow="visible"/>
				</clipPath>
				<path clip-path="url(#SVGID_42_)" fill="#8EC540" d="M74.979,72.643c-1.552,0-2.81-1.26-2.81-2.813V59.543
					c0-1.553,1.258-2.811,2.81-2.811c1.554,0,2.813,1.258,2.813,2.811V69.83C77.791,71.385,76.532,72.643,74.979,72.643"/>
			</g>
		</g>
	</g>
	<g>
		<g>
			<g>
				<defs>
					<rect id="SVGID_43_" x="1.948" y="13.854" width="152.105" height="56.146"/>
				</defs>
				<clipPath id="SVGID_44_">
					<use xlink:href="#SVGID_43_"  overflow="visible"/>
				</clipPath>
				<path clip-path="url(#SVGID_44_)" fill="#BCD647" d="M81.414,74.916c-1.995,0-3.613-1.619-3.613-3.613V57.844
					c0-1.996,1.618-3.615,3.613-3.615s3.612,1.619,3.612,3.615v13.459C85.028,73.297,83.409,74.916,81.414,74.916"/>
			</g>
		</g>
	</g>
	<g>
		<g>
			<g>
				<defs>
					<rect id="SVGID_45_" x="1.948" y="13.854" width="152.105" height="56.146"/>
				</defs>
				<clipPath id="SVGID_46_">
					<use xlink:href="#SVGID_45_"  overflow="visible"/>
				</clipPath>
				<path clip-path="url(#SVGID_46_)" fill="#8EC540" d="M88.641,76.188c-1.993,0-3.612-1.617-3.612-3.613V50.697
					c0-1.996,1.619-3.615,3.612-3.615c1.998,0,3.616,1.619,3.616,3.615v21.875C92.257,74.568,90.639,76.188,88.641,76.188"/>
			</g>
		</g>
	</g>
	<g>
		<g>
			<g>
				<defs>
					<rect id="SVGID_47_" x="1.948" y="13.854" width="152.105" height="56.146"/>
				</defs>
				<clipPath id="SVGID_48_">
					<use xlink:href="#SVGID_47_"  overflow="visible"/>
				</clipPath>
				<path clip-path="url(#SVGID_48_)" fill="#8EC540" d="M95.067,74.113c-1.552,0-2.813-1.258-2.813-2.813V61.016
					c0-1.555,1.261-2.813,2.813-2.813c1.554,0,2.812,1.258,2.812,2.813v10.287C97.878,72.855,96.62,74.113,95.067,74.113"/>
			</g>
		</g>
	</g>
	<g>
		<g>
			<g>
				<defs>
					<rect id="SVGID_49_" x="1.948" y="13.854" width="152.105" height="56.146"/>
				</defs>
				<clipPath id="SVGID_50_">
					<use xlink:href="#SVGID_49_"  overflow="visible"/>
				</clipPath>
				<path clip-path="url(#SVGID_50_)" fill="#6BA542" d="M101.491,73.979c-1.995,0-3.613-1.619-3.613-3.613V56.512
					c0-1.996,1.618-3.613,3.613-3.613c1.996,0,3.615,1.617,3.615,3.613v13.854C105.106,72.359,103.487,73.979,101.491,73.979"/>
			</g>
		</g>
	</g>
	<g>
		<g>
			<g>
				<defs>
					<rect id="SVGID_51_" x="1.948" y="13.854" width="152.105" height="56.146"/>
				</defs>
				<clipPath id="SVGID_52_">
					<use xlink:href="#SVGID_51_"  overflow="visible"/>
				</clipPath>
				<path clip-path="url(#SVGID_52_)" fill="#8EC540" d="M108.72,73.979c-1.995,0-3.613-1.619-3.613-3.613V59.188
					c0-1.994,1.618-3.613,3.613-3.613c1.997,0,3.615,1.619,3.615,3.613v11.176C112.335,72.359,110.717,73.979,108.72,73.979"/>
			</g>
		</g>
	</g>
	<g>
		<g>
			<g>
				<defs>
					<rect id="SVGID_53_" x="1.948" y="13.854" width="152.105" height="56.146"/>
				</defs>
				<clipPath id="SVGID_54_">
					<use xlink:href="#SVGID_53_"  overflow="visible"/>
				</clipPath>
				<path clip-path="url(#SVGID_54_)" fill="#BCD647" d="M115.948,73.74c-1.994,0-3.615-1.619-3.615-3.615V52.227
					c0-1.994,1.622-3.613,3.615-3.613c1.996,0,3.612,1.619,3.612,3.613v17.898C119.562,72.121,117.944,73.74,115.948,73.74"/>
			</g>
		</g>
	</g>
	<g>
		<g>
			<g>
				<defs>
					<rect id="SVGID_55_" x="1.948" y="13.854" width="152.105" height="56.146"/>
				</defs>
				<clipPath id="SVGID_56_">
					<use xlink:href="#SVGID_55_"  overflow="visible"/>
				</clipPath>
				<path clip-path="url(#SVGID_56_)" fill="#6BA542" d="M122.774,73.311c-1.773,0-3.213-1.439-3.213-3.215V54.971
					c0-1.773,1.438-3.215,3.213-3.215c1.775,0,3.213,1.439,3.213,3.215v15.127C125.987,71.869,124.55,73.311,122.774,73.311"/>
			</g>
		</g>
	</g>
	<g>
		<g>
			<g>
				<defs>
					<rect id="SVGID_57_" x="1.948" y="13.854" width="152.105" height="56.146"/>
				</defs>
				<clipPath id="SVGID_58_">
					<use xlink:href="#SVGID_57_"  overflow="visible"/>
				</clipPath>
				<path clip-path="url(#SVGID_58_)" fill="#8EC540" d="M129.601,74.48c-1.992,0-3.613-1.619-3.613-3.613V57.408
					c0-1.996,1.621-3.613,3.613-3.613c1.996,0,3.614,1.617,3.614,3.613v13.459C133.215,72.861,131.597,74.48,129.601,74.48"/>
			</g>
		</g>
	</g>
	<g>
		<g>
			<g>
				<defs>
					<rect id="SVGID_59_" x="1.948" y="13.854" width="152.105" height="56.146"/>
				</defs>
				<clipPath id="SVGID_60_">
					<use xlink:href="#SVGID_59_"  overflow="visible"/>
				</clipPath>
				<path clip-path="url(#SVGID_60_)" fill="#BCD647" d="M136.829,75.24c-1.995,0-3.612-1.619-3.612-3.617V52.416
					c0-1.994,1.618-3.613,3.612-3.613c1.996,0,3.615,1.619,3.615,3.613v19.207C140.444,73.621,138.825,75.24,136.829,75.24"/>
			</g>
		</g>
	</g>
	<g>
		<g>
			<g>
				<defs>
					<rect id="SVGID_61_" x="1.948" y="13.854" width="152.105" height="56.146"/>
				</defs>
				<clipPath id="SVGID_62_">
					<use xlink:href="#SVGID_61_"  overflow="visible"/>
				</clipPath>
				<path clip-path="url(#SVGID_62_)" fill="#8EC540" d="M143.254,72.73c-1.552,0-2.81-1.258-2.81-2.813V59.633
					c0-1.555,1.258-2.813,2.81-2.813c1.554,0,2.813,1.258,2.813,2.813V69.92C146.067,71.473,144.808,72.73,143.254,72.73"/>
			</g>
		</g>
	</g>
</g>
</svg>
